<svg width="591" height="70" viewBox="0 0 591 70" fill="none" xmlns="http://www.w3.org/2000/svg">
<rect width="591" height="70" fill="#EAF3EB" fill-opacity="0.5"/>
<path d="M203.234 45.0312C203.234 44.1458 202.922 43.4688 202.297 43C201.672 42.5208 200.547 42.0208 198.922 41.5C197.297 40.9688 196.01 40.4479 195.062 39.9375C192.479 38.5417 191.188 36.6615 191.188 34.2969C191.188 33.0677 191.531 31.974 192.219 31.0156C192.917 30.0469 193.911 29.2917 195.203 28.75C196.505 28.2083 197.964 27.9375 199.578 27.9375C201.203 27.9375 202.651 28.2344 203.922 28.8281C205.193 29.4115 206.177 30.2396 206.875 31.3125C207.583 32.3854 207.938 33.6042 207.938 34.9688H203.25C203.25 33.9271 202.922 33.1198 202.266 32.5469C201.609 31.9635 200.688 31.6719 199.5 31.6719C198.354 31.6719 197.464 31.9167 196.828 32.4062C196.193 32.8854 195.875 33.5208 195.875 34.3125C195.875 35.0521 196.245 35.6719 196.984 36.1719C197.734 36.6719 198.833 37.1406 200.281 37.5781C202.948 38.3802 204.891 39.375 206.109 40.5625C207.328 41.75 207.938 43.2292 207.938 45C207.938 46.9688 207.193 48.5156 205.703 49.6406C204.214 50.7552 202.208 51.3125 199.688 51.3125C197.938 51.3125 196.344 50.9948 194.906 50.3594C193.469 49.7135 192.37 48.8333 191.609 47.7188C190.859 46.6042 190.484 45.3125 190.484 43.8438H195.188C195.188 46.3542 196.688 47.6094 199.688 47.6094C200.802 47.6094 201.672 47.3854 202.297 46.9375C202.922 46.4792 203.234 45.8438 203.234 45.0312ZM226.047 42.7031C226.047 45.3073 225.453 47.3958 224.266 48.9688C223.089 50.5312 221.495 51.3125 219.484 51.3125C217.776 51.3125 216.396 50.7188 215.344 49.5312V57.5H210.828V34.0938H215.016L215.172 35.75C216.266 34.4375 217.693 33.7812 219.453 33.7812C221.536 33.7812 223.156 34.5521 224.312 36.0938C225.469 37.6354 226.047 39.7604 226.047 42.4688V42.7031ZM221.531 42.375C221.531 40.8021 221.25 39.5885 220.688 38.7344C220.135 37.8802 219.328 37.4531 218.266 37.4531C216.849 37.4531 215.875 37.9948 215.344 39.0781V46C215.896 47.1146 216.88 47.6719 218.297 47.6719C220.453 47.6719 221.531 45.9062 221.531 42.375ZM236.641 51.3125C234.161 51.3125 232.141 50.5521 230.578 49.0312C229.026 47.5104 228.25 45.4844 228.25 42.9531V42.5156C228.25 40.8177 228.578 39.3021 229.234 37.9688C229.891 36.625 230.818 35.5938 232.016 34.875C233.224 34.1458 234.599 33.7812 236.141 33.7812C238.453 33.7812 240.271 34.5104 241.594 35.9688C242.927 37.4271 243.594 39.4948 243.594 42.1719V44.0156H232.828C232.974 45.1198 233.411 46.0052 234.141 46.6719C234.88 47.3385 235.812 47.6719 236.938 47.6719C238.677 47.6719 240.036 47.0417 241.016 45.7812L243.234 48.2656C242.557 49.224 241.641 49.974 240.484 50.5156C239.328 51.0469 238.047 51.3125 236.641 51.3125ZM236.125 37.4375C235.229 37.4375 234.5 37.7396 233.938 38.3438C233.385 38.9479 233.031 39.8125 232.875 40.9375H239.156V40.5781C239.135 39.5781 238.865 38.8073 238.344 38.2656C237.823 37.7135 237.083 37.4375 236.125 37.4375ZM253.953 51.3125C251.474 51.3125 249.453 50.5521 247.891 49.0312C246.339 47.5104 245.562 45.4844 245.562 42.9531V42.5156C245.562 40.8177 245.891 39.3021 246.547 37.9688C247.203 36.625 248.13 35.5938 249.328 34.875C250.536 34.1458 251.911 33.7812 253.453 33.7812C255.766 33.7812 257.583 34.5104 258.906 35.9688C260.24 37.4271 260.906 39.4948 260.906 42.1719V44.0156H250.141C250.286 45.1198 250.724 46.0052 251.453 46.6719C252.193 47.3385 253.125 47.6719 254.25 47.6719C255.99 47.6719 257.349 47.0417 258.328 45.7812L260.547 48.2656C259.87 49.224 258.953 49.974 257.797 50.5156C256.641 51.0469 255.359 51.3125 253.953 51.3125ZM253.438 37.4375C252.542 37.4375 251.812 37.7396 251.25 38.3438C250.698 38.9479 250.344 39.8125 250.188 40.9375H256.469V40.5781C256.448 39.5781 256.177 38.8073 255.656 38.2656C255.135 37.7135 254.396 37.4375 253.438 37.4375ZM270.516 47.6719C271.349 47.6719 272.026 47.4427 272.547 46.9844C273.068 46.526 273.339 45.9167 273.359 45.1562H277.594C277.583 46.3021 277.271 47.3542 276.656 48.3125C276.042 49.2604 275.198 50 274.125 50.5312C273.062 51.0521 271.885 51.3125 270.594 51.3125C268.177 51.3125 266.271 50.5469 264.875 49.0156C263.479 47.474 262.781 45.349 262.781 42.6406V42.3438C262.781 39.7396 263.474 37.6615 264.859 36.1094C266.245 34.5573 268.146 33.7812 270.562 33.7812C272.677 33.7812 274.37 34.3854 275.641 35.5938C276.922 36.7917 277.573 38.3906 277.594 40.3906H273.359C273.339 39.5156 273.068 38.8073 272.547 38.2656C272.026 37.7135 271.339 37.4375 270.484 37.4375C269.432 37.4375 268.635 37.8229 268.094 38.5938C267.562 39.3542 267.297 40.5938 267.297 42.3125V42.7812C267.297 44.5208 267.562 45.7708 268.094 46.5312C268.625 47.2917 269.432 47.6719 270.516 47.6719ZM284.578 35.9375C285.776 34.5 287.281 33.7812 289.094 33.7812C292.76 33.7812 294.62 35.9115 294.672 40.1719V51H290.156V40.2969C290.156 39.3281 289.948 38.6146 289.531 38.1562C289.115 37.6875 288.422 37.4531 287.453 37.4531C286.13 37.4531 285.172 37.9635 284.578 38.9844V51H280.062V27H284.578V35.9375ZM311.453 29.9375V34.0938H314.344V37.4062H311.453V45.8438C311.453 46.4688 311.573 46.9167 311.812 47.1875C312.052 47.4583 312.51 47.5938 313.188 47.5938C313.688 47.5938 314.13 47.5573 314.516 47.4844V50.9062C313.63 51.1771 312.719 51.3125 311.781 51.3125C308.615 51.3125 307 49.7135 306.938 46.5156V37.4062H304.469V34.0938H306.938V29.9375H311.453ZM315.688 42.3906C315.688 40.7135 316.01 39.2188 316.656 37.9062C317.302 36.5938 318.229 35.5781 319.438 34.8594C320.656 34.1406 322.068 33.7812 323.672 33.7812C325.953 33.7812 327.812 34.4792 329.25 35.875C330.698 37.2708 331.505 39.1667 331.672 41.5625L331.703 42.7188C331.703 45.3125 330.979 47.3958 329.531 48.9688C328.083 50.5312 326.141 51.3125 323.703 51.3125C321.266 51.3125 319.318 50.5312 317.859 48.9688C316.411 47.4062 315.688 45.2812 315.688 42.5938V42.3906ZM320.203 42.7188C320.203 44.3229 320.505 45.5521 321.109 46.4062C321.714 47.25 322.578 47.6719 323.703 47.6719C324.797 47.6719 325.651 47.2552 326.266 46.4219C326.88 45.5781 327.188 44.2344 327.188 42.3906C327.188 40.8177 326.88 39.599 326.266 38.7344C325.651 37.8698 324.786 37.4375 323.672 37.4375C322.568 37.4375 321.714 37.8698 321.109 38.7344C320.505 39.5885 320.203 40.9167 320.203 42.7188ZM358.938 32.0469H351.969V51H347.281V32.0469H340.406V28.25H358.938V32.0469ZM367.703 51.3125C365.224 51.3125 363.203 50.5521 361.641 49.0312C360.089 47.5104 359.312 45.4844 359.312 42.9531V42.5156C359.312 40.8177 359.641 39.3021 360.297 37.9688C360.953 36.625 361.88 35.5938 363.078 34.875C364.286 34.1458 365.661 33.7812 367.203 33.7812C369.516 33.7812 371.333 34.5104 372.656 35.9688C373.99 37.4271 374.656 39.4948 374.656 42.1719V44.0156H363.891C364.036 45.1198 364.474 46.0052 365.203 46.6719C365.943 47.3385 366.875 47.6719 368 47.6719C369.74 47.6719 371.099 47.0417 372.078 45.7812L374.297 48.2656C373.62 49.224 372.703 49.974 371.547 50.5156C370.391 51.0469 369.109 51.3125 367.703 51.3125ZM367.188 37.4375C366.292 37.4375 365.562 37.7396 365 38.3438C364.448 38.9479 364.094 39.8125 363.938 40.9375H370.219V40.5781C370.198 39.5781 369.927 38.8073 369.406 38.2656C368.885 37.7135 368.146 37.4375 367.188 37.4375ZM383.672 39.1406L386.516 34.0938H391.344L386.531 42.375L391.547 51H386.703L383.688 45.6875L380.688 51H375.828L380.844 42.375L376.047 34.0938H380.891L383.672 39.1406ZM398.922 29.9375V34.0938H401.812V37.4062H398.922V45.8438C398.922 46.4688 399.042 46.9167 399.281 47.1875C399.521 47.4583 399.979 47.5938 400.656 47.5938C401.156 47.5938 401.599 47.5573 401.984 47.4844V50.9062C401.099 51.1771 400.188 51.3125 399.25 51.3125C396.083 51.3125 394.469 49.7135 394.406 46.5156V37.4062H391.938V34.0938H394.406V29.9375H398.922Z" fill="black"/>
</svg>
