<svg width="591" height="70" viewBox="0 0 591 70" fill="none" xmlns="http://www.w3.org/2000/svg">
<rect width="591" height="70" fill="#EAF3EB" fill-opacity="0.5"/>
<path d="M174.984 48.125C174.141 49.1354 172.948 49.9219 171.406 50.4844C169.865 51.0365 168.156 51.3125 166.281 51.3125C164.312 51.3125 162.583 50.8854 161.094 50.0312C159.615 49.1667 158.469 47.9167 157.656 46.2812C156.854 44.6458 156.443 42.724 156.422 40.5156V38.9688C156.422 36.6979 156.802 34.7344 157.562 33.0781C158.333 31.4115 159.438 30.1406 160.875 29.2656C162.323 28.3802 164.016 27.9375 165.953 27.9375C168.651 27.9375 170.76 28.5833 172.281 29.875C173.802 31.1562 174.703 33.026 174.984 35.4844H170.422C170.214 34.1823 169.75 33.2292 169.031 32.625C168.323 32.0208 167.344 31.7188 166.094 31.7188C164.5 31.7188 163.286 32.3177 162.453 33.5156C161.62 34.7135 161.198 36.4948 161.188 38.8594V40.3125C161.188 42.6979 161.641 44.5 162.547 45.7188C163.453 46.9375 164.781 47.5469 166.531 47.5469C168.292 47.5469 169.547 47.1719 170.297 46.4219V42.5H166.031V39.0469H174.984V48.125ZM188.297 51C188.089 50.5938 187.938 50.0885 187.844 49.4844C186.75 50.7031 185.328 51.3125 183.578 51.3125C181.922 51.3125 180.547 50.8333 179.453 49.875C178.37 48.9167 177.828 47.7083 177.828 46.25C177.828 44.4583 178.49 43.0833 179.812 42.125C181.146 41.1667 183.068 40.6823 185.578 40.6719H187.656V39.7031C187.656 38.9219 187.453 38.2969 187.047 37.8281C186.651 37.3594 186.021 37.125 185.156 37.125C184.396 37.125 183.797 37.3073 183.359 37.6719C182.932 38.0365 182.719 38.5365 182.719 39.1719H178.203C178.203 38.1927 178.505 37.2865 179.109 36.4531C179.714 35.6198 180.568 34.9688 181.672 34.5C182.776 34.0208 184.016 33.7812 185.391 33.7812C187.474 33.7812 189.125 34.3073 190.344 35.3594C191.573 36.401 192.188 37.8698 192.188 39.7656V47.0938C192.198 48.6979 192.422 49.9115 192.859 50.7344V51H188.297ZM184.562 47.8594C185.229 47.8594 185.844 47.7135 186.406 47.4219C186.969 47.1198 187.385 46.7188 187.656 46.2188V43.3125H185.969C183.708 43.3125 182.505 44.0938 182.359 45.6562L182.344 45.9219C182.344 46.4844 182.542 46.9479 182.938 47.3125C183.333 47.6771 183.875 47.8594 184.562 47.8594ZM199.891 34.0938L200.031 35.9844C201.229 34.5156 202.849 33.7812 204.891 33.7812C207.068 33.7812 208.562 34.6406 209.375 36.3594C210.562 34.6406 212.255 33.7812 214.453 33.7812C216.286 33.7812 217.651 34.3177 218.547 35.3906C219.443 36.4531 219.891 38.0573 219.891 40.2031V51H215.359V40.2188C215.359 39.2604 215.172 38.5625 214.797 38.125C214.422 37.6771 213.76 37.4531 212.812 37.4531C211.458 37.4531 210.521 38.099 210 39.3906L210.016 51H205.5V40.2344C205.5 39.2552 205.307 38.5469 204.922 38.1094C204.536 37.6719 203.88 37.4531 202.953 37.4531C201.672 37.4531 200.745 37.9844 200.172 39.0469V51H195.656V34.0938H199.891ZM231.156 51.3125C228.677 51.3125 226.656 50.5521 225.094 49.0312C223.542 47.5104 222.766 45.4844 222.766 42.9531V42.5156C222.766 40.8177 223.094 39.3021 223.75 37.9688C224.406 36.625 225.333 35.5938 226.531 34.875C227.74 34.1458 229.115 33.7812 230.656 33.7812C232.969 33.7812 234.786 34.5104 236.109 35.9688C237.443 37.4271 238.109 39.4948 238.109 42.1719V44.0156H227.344C227.49 45.1198 227.927 46.0052 228.656 46.6719C229.396 47.3385 230.328 47.6719 231.453 47.6719C233.193 47.6719 234.552 47.0417 235.531 45.7812L237.75 48.2656C237.073 49.224 236.156 49.974 235 50.5156C233.844 51.0469 232.562 51.3125 231.156 51.3125ZM230.641 37.4375C229.745 37.4375 229.016 37.7396 228.453 38.3438C227.901 38.9479 227.547 39.8125 227.391 40.9375H233.672V40.5781C233.651 39.5781 233.38 38.8073 232.859 38.2656C232.339 37.7135 231.599 37.4375 230.641 37.4375ZM261.797 46.3125H253.578L252.016 51H247.031L255.5 28.25H259.844L268.359 51H263.375L261.797 46.3125ZM254.844 42.5156H260.531L257.672 34L254.844 42.5156ZM280.125 49.2812C279.01 50.6354 277.469 51.3125 275.5 51.3125C273.688 51.3125 272.302 50.7917 271.344 49.75C270.396 48.7083 269.911 47.1823 269.891 45.1719V34.0938H274.406V45.0156C274.406 46.776 275.208 47.6562 276.812 47.6562C278.344 47.6562 279.396 47.125 279.969 46.0625V34.0938H284.5V51H280.25L280.125 49.2812ZM287.203 42.4219C287.203 39.7865 287.792 37.6875 288.969 36.125C290.156 34.5625 291.776 33.7812 293.828 33.7812C295.474 33.7812 296.833 34.3958 297.906 35.625V27H302.438V51H298.359L298.141 49.2031C297.016 50.6094 295.568 51.3125 293.797 51.3125C291.807 51.3125 290.208 50.5312 289 48.9688C287.802 47.3958 287.203 45.2135 287.203 42.4219ZM291.719 42.75C291.719 44.3333 291.995 45.5469 292.547 46.3906C293.099 47.2344 293.901 47.6562 294.953 47.6562C296.349 47.6562 297.333 47.0677 297.906 45.8906V39.2188C297.344 38.0417 296.37 37.4531 294.984 37.4531C292.807 37.4531 291.719 39.2188 291.719 42.75ZM310.703 51H306.172V34.0938H310.703V51ZM305.906 29.7188C305.906 29.0417 306.13 28.4844 306.578 28.0469C307.036 27.6094 307.656 27.3906 308.438 27.3906C309.208 27.3906 309.823 27.6094 310.281 28.0469C310.74 28.4844 310.969 29.0417 310.969 29.7188C310.969 30.4062 310.734 30.9688 310.266 31.4062C309.807 31.8438 309.198 32.0625 308.438 32.0625C307.677 32.0625 307.062 31.8438 306.594 31.4062C306.135 30.9688 305.906 30.4062 305.906 29.7188ZM313.734 42.3906C313.734 40.7135 314.057 39.2188 314.703 37.9062C315.349 36.5938 316.276 35.5781 317.484 34.8594C318.703 34.1406 320.115 33.7812 321.719 33.7812C324 33.7812 325.859 34.4792 327.297 35.875C328.745 37.2708 329.552 39.1667 329.719 41.5625L329.75 42.7188C329.75 45.3125 329.026 47.3958 327.578 48.9688C326.13 50.5312 324.188 51.3125 321.75 51.3125C319.312 51.3125 317.365 50.5312 315.906 48.9688C314.458 47.4062 313.734 45.2812 313.734 42.5938V42.3906ZM318.25 42.7188C318.25 44.3229 318.552 45.5521 319.156 46.4062C319.76 47.25 320.625 47.6719 321.75 47.6719C322.844 47.6719 323.698 47.2552 324.312 46.4219C324.927 45.5781 325.234 44.2344 325.234 42.3906C325.234 40.8177 324.927 39.599 324.312 38.7344C323.698 37.8698 322.833 37.4375 321.719 37.4375C320.615 37.4375 319.76 37.8698 319.156 38.7344C318.552 39.5885 318.25 40.9167 318.25 42.7188ZM345.906 29.9375V34.0938H348.797V37.4062H345.906V45.8438C345.906 46.4688 346.026 46.9167 346.266 47.1875C346.505 47.4583 346.964 47.5938 347.641 47.5938C348.141 47.5938 348.583 47.5573 348.969 47.4844V50.9062C348.083 51.1771 347.172 51.3125 346.234 51.3125C343.068 51.3125 341.453 49.7135 341.391 46.5156V37.4062H338.922V34.0938H341.391V29.9375H345.906ZM350.141 42.3906C350.141 40.7135 350.464 39.2188 351.109 37.9062C351.755 36.5938 352.682 35.5781 353.891 34.8594C355.109 34.1406 356.521 33.7812 358.125 33.7812C360.406 33.7812 362.266 34.4792 363.703 35.875C365.151 37.2708 365.958 39.1667 366.125 41.5625L366.156 42.7188C366.156 45.3125 365.432 47.3958 363.984 48.9688C362.536 50.5312 360.594 51.3125 358.156 51.3125C355.719 51.3125 353.771 50.5312 352.312 48.9688C350.865 47.4062 350.141 45.2812 350.141 42.5938V42.3906ZM354.656 42.7188C354.656 44.3229 354.958 45.5521 355.562 46.4062C356.167 47.25 357.031 47.6719 358.156 47.6719C359.25 47.6719 360.104 47.2552 360.719 46.4219C361.333 45.5781 361.641 44.2344 361.641 42.3906C361.641 40.8177 361.333 39.599 360.719 38.7344C360.104 37.8698 359.24 37.4375 358.125 37.4375C357.021 37.4375 356.167 37.8698 355.562 38.7344C354.958 39.5885 354.656 40.9167 354.656 42.7188ZM393.391 32.0469H386.422V51H381.734V32.0469H374.859V28.25H393.391V32.0469ZM402.156 51.3125C399.677 51.3125 397.656 50.5521 396.094 49.0312C394.542 47.5104 393.766 45.4844 393.766 42.9531V42.5156C393.766 40.8177 394.094 39.3021 394.75 37.9688C395.406 36.625 396.333 35.5938 397.531 34.875C398.74 34.1458 400.115 33.7812 401.656 33.7812C403.969 33.7812 405.786 34.5104 407.109 35.9688C408.443 37.4271 409.109 39.4948 409.109 42.1719V44.0156H398.344C398.49 45.1198 398.927 46.0052 399.656 46.6719C400.396 47.3385 401.328 47.6719 402.453 47.6719C404.193 47.6719 405.552 47.0417 406.531 45.7812L408.75 48.2656C408.073 49.224 407.156 49.974 406 50.5156C404.844 51.0469 403.562 51.3125 402.156 51.3125ZM401.641 37.4375C400.745 37.4375 400.016 37.7396 399.453 38.3438C398.901 38.9479 398.547 39.8125 398.391 40.9375H404.672V40.5781C404.651 39.5781 404.38 38.8073 403.859 38.2656C403.339 37.7135 402.599 37.4375 401.641 37.4375ZM418.125 39.1406L420.969 34.0938H425.797L420.984 42.375L426 51H421.156L418.141 45.6875L415.141 51H410.281L415.297 42.375L410.5 34.0938H415.344L418.125 39.1406ZM433.375 29.9375V34.0938H436.266V37.4062H433.375V45.8438C433.375 46.4688 433.495 46.9167 433.734 47.1875C433.974 47.4583 434.432 47.5938 435.109 47.5938C435.609 47.5938 436.052 47.5573 436.438 47.4844V50.9062C435.552 51.1771 434.641 51.3125 433.703 51.3125C430.536 51.3125 428.922 49.7135 428.859 46.5156V37.4062H426.391V34.0938H428.859V29.9375H433.375Z" fill="black"/>
</svg>
