<svg width="284" height="70" viewBox="0 0 284 70" fill="none" xmlns="http://www.w3.org/2000/svg">
<rect width="284" height="70" fill="#4CAF50" fill-opacity="0.5"/>
<path d="M41.2147 28.25L47.0584 44.75L52.8709 28.25H59.0272V51H54.324V44.7812L54.7928 34.0469L48.6522 51H45.4334L39.3084 34.0625L39.7772 44.7812V51H35.0897V28.25H41.2147ZM72.949 49.2812C71.8344 50.6354 70.2928 51.3125 68.324 51.3125C66.5115 51.3125 65.1261 50.7917 64.1678 49.75C63.2199 48.7083 62.7355 47.1823 62.7147 45.1719V34.0938H67.2303V45.0156C67.2303 46.776 68.0324 47.6562 69.6365 47.6562C71.1678 47.6562 72.2199 47.125 72.7928 46.0625V34.0938H77.324V51H73.074L72.949 49.2812ZM89.8865 46.3281C89.8865 45.776 89.6105 45.3438 89.0584 45.0312C88.5167 44.7083 87.6417 44.4219 86.4334 44.1719C82.4126 43.3281 80.4022 41.6198 80.4022 39.0469C80.4022 37.5469 81.0219 36.2969 82.2615 35.2969C83.5115 34.2865 85.1417 33.7812 87.1522 33.7812C89.298 33.7812 91.0115 34.2865 92.2928 35.2969C93.5844 36.3073 94.2303 37.6198 94.2303 39.2344H89.7147C89.7147 38.5885 89.5063 38.0573 89.0897 37.6406C88.673 37.2135 88.0219 37 87.1365 37C86.3761 37 85.7876 37.1719 85.3709 37.5156C84.9542 37.8594 84.7459 38.2969 84.7459 38.8281C84.7459 39.3281 84.9803 39.7344 85.449 40.0469C85.9282 40.349 86.7303 40.6146 87.8553 40.8438C88.9803 41.0625 89.9282 41.3125 90.699 41.5938C93.0844 42.4688 94.2772 43.9844 94.2772 46.1406C94.2772 47.6823 93.6157 48.9323 92.2928 49.8906C90.9699 50.8385 89.2615 51.3125 87.1678 51.3125C85.7511 51.3125 84.4907 51.0625 83.3865 50.5625C82.2928 50.0521 81.4334 49.3594 80.8084 48.4844C80.1834 47.599 79.8709 46.6458 79.8709 45.625H84.1522C84.1938 46.4271 84.4907 47.0417 85.0428 47.4688C85.5949 47.8958 86.3344 48.1094 87.2615 48.1094C88.1261 48.1094 88.7772 47.9479 89.2147 47.625C89.6626 47.2917 89.8865 46.8594 89.8865 46.3281ZM101.965 51H97.4334V34.0938H101.965V51ZM97.1678 29.7188C97.1678 29.0417 97.3917 28.4844 97.8397 28.0469C98.298 27.6094 98.9178 27.3906 99.699 27.3906C100.47 27.3906 101.084 27.6094 101.543 28.0469C102.001 28.4844 102.23 29.0417 102.23 29.7188C102.23 30.4062 101.996 30.9688 101.527 31.4062C101.069 31.8438 100.459 32.0625 99.699 32.0625C98.9386 32.0625 98.324 31.8438 97.8553 31.4062C97.3969 30.9688 97.1678 30.4062 97.1678 29.7188ZM112.73 47.6719C113.564 47.6719 114.241 47.4427 114.762 46.9844C115.282 46.526 115.553 45.9167 115.574 45.1562H119.808C119.798 46.3021 119.485 47.3542 118.871 48.3125C118.256 49.2604 117.413 50 116.34 50.5312C115.277 51.0521 114.1 51.3125 112.808 51.3125C110.392 51.3125 108.485 50.5469 107.09 49.0156C105.694 47.474 104.996 45.349 104.996 42.6406V42.3438C104.996 39.7396 105.689 37.6615 107.074 36.1094C108.459 34.5573 110.36 33.7812 112.777 33.7812C114.892 33.7812 116.584 34.3854 117.855 35.5938C119.137 36.7917 119.788 38.3906 119.808 40.3906H115.574C115.553 39.5156 115.282 38.8073 114.762 38.2656C114.241 37.7135 113.553 37.4375 112.699 37.4375C111.647 37.4375 110.85 37.8229 110.308 38.5938C109.777 39.3542 109.512 40.5938 109.512 42.3125V42.7812C109.512 44.5208 109.777 45.7708 110.308 46.5312C110.84 47.2917 111.647 47.6719 112.73 47.6719ZM148.512 43.4219C148.334 45.8698 147.428 47.7969 145.793 49.2031C144.168 50.6094 142.022 51.3125 139.355 51.3125C136.439 51.3125 134.142 50.3333 132.465 48.375C130.798 46.4062 129.965 43.7083 129.965 40.2812V38.8906C129.965 36.7031 130.35 34.776 131.121 33.1094C131.892 31.4427 132.991 30.1667 134.418 29.2812C135.855 28.3854 137.522 27.9375 139.418 27.9375C142.043 27.9375 144.157 28.6406 145.762 30.0469C147.366 31.4531 148.293 33.4271 148.543 35.9688H143.855C143.741 34.5 143.329 33.4375 142.621 32.7812C141.923 32.1146 140.855 31.7812 139.418 31.7812C137.855 31.7812 136.683 32.3438 135.902 33.4688C135.131 34.5833 134.735 36.3177 134.715 38.6719V40.3906C134.715 42.849 135.084 44.6458 135.824 45.7812C136.574 46.9167 137.751 47.4844 139.355 47.4844C140.803 47.4844 141.881 47.1562 142.59 46.5C143.308 45.8333 143.72 44.8073 143.824 43.4219H148.512ZM150.59 42.3906C150.59 40.7135 150.913 39.2188 151.558 37.9062C152.204 36.5938 153.131 35.5781 154.34 34.8594C155.558 34.1406 156.97 33.7812 158.574 33.7812C160.855 33.7812 162.715 34.4792 164.152 35.875C165.6 37.2708 166.407 39.1667 166.574 41.5625L166.605 42.7188C166.605 45.3125 165.881 47.3958 164.433 48.9688C162.985 50.5312 161.043 51.3125 158.605 51.3125C156.168 51.3125 154.22 50.5312 152.762 48.9688C151.314 47.4062 150.59 45.2812 150.59 42.5938V42.3906ZM155.105 42.7188C155.105 44.3229 155.407 45.5521 156.012 46.4062C156.616 47.25 157.48 47.6719 158.605 47.6719C159.699 47.6719 160.553 47.2552 161.168 46.4219C161.782 45.5781 162.09 44.2344 162.09 42.3906C162.09 40.8177 161.782 39.599 161.168 38.7344C160.553 37.8698 159.689 37.4375 158.574 37.4375C157.47 37.4375 156.616 37.8698 156.012 38.7344C155.407 39.5885 155.105 40.9167 155.105 42.7188ZM173.543 34.0938L173.683 36.0469C174.892 34.5365 176.512 33.7812 178.543 33.7812C180.334 33.7812 181.668 34.3073 182.543 35.3594C183.418 36.4115 183.866 37.9844 183.887 40.0781V51H179.371V40.1875C179.371 39.2292 179.163 38.5365 178.746 38.1094C178.329 37.6719 177.637 37.4531 176.668 37.4531C175.397 37.4531 174.444 37.9948 173.808 39.0781V51H169.293V34.0938H173.543ZM192.73 29.9375V34.0938H195.621V37.4062H192.73V45.8438C192.73 46.4688 192.85 46.9167 193.09 47.1875C193.329 47.4583 193.788 47.5938 194.465 47.5938C194.965 47.5938 195.407 47.5573 195.793 47.4844V50.9062C194.907 51.1771 193.996 51.3125 193.058 51.3125C189.892 51.3125 188.277 49.7135 188.215 46.5156V37.4062H185.746V34.0938H188.215V29.9375H192.73ZM207.637 38.3281C207.022 38.2448 206.48 38.2031 206.012 38.2031C204.303 38.2031 203.183 38.7812 202.652 39.9375V51H198.137V34.0938H202.402L202.527 36.1094C203.433 34.5573 204.689 33.7812 206.293 33.7812C206.793 33.7812 207.262 33.849 207.699 33.9844L207.637 38.3281ZM208.558 42.3906C208.558 40.7135 208.881 39.2188 209.527 37.9062C210.173 36.5938 211.1 35.5781 212.308 34.8594C213.527 34.1406 214.939 33.7812 216.543 33.7812C218.824 33.7812 220.683 34.4792 222.121 35.875C223.569 37.2708 224.376 39.1667 224.543 41.5625L224.574 42.7188C224.574 45.3125 223.85 47.3958 222.402 48.9688C220.954 50.5312 219.012 51.3125 216.574 51.3125C214.137 51.3125 212.189 50.5312 210.73 48.9688C209.282 47.4062 208.558 45.2812 208.558 42.5938V42.3906ZM213.074 42.7188C213.074 44.3229 213.376 45.5521 213.98 46.4062C214.584 47.25 215.449 47.6719 216.574 47.6719C217.668 47.6719 218.522 47.2552 219.137 46.4219C219.751 45.5781 220.058 44.2344 220.058 42.3906C220.058 40.8177 219.751 39.599 219.137 38.7344C218.522 37.8698 217.657 37.4375 216.543 37.4375C215.439 37.4375 214.584 37.8698 213.98 38.7344C213.376 39.5885 213.074 40.9167 213.074 42.7188ZM232.121 51H227.59V27H232.121V51ZM245.012 46.3281C245.012 45.776 244.735 45.3438 244.183 45.0312C243.642 44.7083 242.767 44.4219 241.558 44.1719C237.538 43.3281 235.527 41.6198 235.527 39.0469C235.527 37.5469 236.147 36.2969 237.387 35.2969C238.637 34.2865 240.267 33.7812 242.277 33.7812C244.423 33.7812 246.137 34.2865 247.418 35.2969C248.709 36.3073 249.355 37.6198 249.355 39.2344H244.84C244.84 38.5885 244.631 38.0573 244.215 37.6406C243.798 37.2135 243.147 37 242.262 37C241.501 37 240.913 37.1719 240.496 37.5156C240.079 37.8594 239.871 38.2969 239.871 38.8281C239.871 39.3281 240.105 39.7344 240.574 40.0469C241.053 40.349 241.855 40.6146 242.98 40.8438C244.105 41.0625 245.053 41.3125 245.824 41.5938C248.209 42.4688 249.402 43.9844 249.402 46.1406C249.402 47.6823 248.741 48.9323 247.418 49.8906C246.095 50.8385 244.387 51.3125 242.293 51.3125C240.876 51.3125 239.616 51.0625 238.512 50.5625C237.418 50.0521 236.558 49.3594 235.933 48.4844C235.308 47.599 234.996 46.6458 234.996 45.625H239.277C239.319 46.4271 239.616 47.0417 240.168 47.4688C240.72 47.8958 241.459 48.1094 242.387 48.1094C243.251 48.1094 243.902 47.9479 244.34 47.625C244.788 47.2917 245.012 46.8594 245.012 46.3281Z" fill="black"/>
</svg>
