<svg width="591" height="70" viewBox="0 0 591 70" fill="none" xmlns="http://www.w3.org/2000/svg">
<rect width="591" height="70" fill="#4CAF50" fill-opacity="0.5"/>
<path d="M197.391 20.25L203.234 36.75L209.047 20.25H215.203V43H210.5V36.7812L210.969 26.0469L204.828 43H201.609L195.484 26.0625L195.953 36.7812V43H191.266V20.25H197.391ZM229.125 41.2812C228.01 42.6354 226.469 43.3125 224.5 43.3125C222.688 43.3125 221.302 42.7917 220.344 41.75C219.396 40.7083 218.911 39.1823 218.891 37.1719V26.0938H223.406V37.0156C223.406 38.776 224.208 39.6562 225.812 39.6562C227.344 39.6562 228.396 39.125 228.969 38.0625V26.0938H233.5V43H229.25L229.125 41.2812ZM246.062 38.3281C246.062 37.776 245.786 37.3438 245.234 37.0312C244.693 36.7083 243.818 36.4219 242.609 36.1719C238.589 35.3281 236.578 33.6198 236.578 31.0469C236.578 29.5469 237.198 28.2969 238.438 27.2969C239.688 26.2865 241.318 25.7812 243.328 25.7812C245.474 25.7812 247.188 26.2865 248.469 27.2969C249.76 28.3073 250.406 29.6198 250.406 31.2344H245.891C245.891 30.5885 245.682 30.0573 245.266 29.6406C244.849 29.2135 244.198 29 243.312 29C242.552 29 241.964 29.1719 241.547 29.5156C241.13 29.8594 240.922 30.2969 240.922 30.8281C240.922 31.3281 241.156 31.7344 241.625 32.0469C242.104 32.349 242.906 32.6146 244.031 32.8438C245.156 33.0625 246.104 33.3125 246.875 33.5938C249.26 34.4688 250.453 35.9844 250.453 38.1406C250.453 39.6823 249.792 40.9323 248.469 41.8906C247.146 42.8385 245.438 43.3125 243.344 43.3125C241.927 43.3125 240.667 43.0625 239.562 42.5625C238.469 42.0521 237.609 41.3594 236.984 40.4844C236.359 39.599 236.047 38.6458 236.047 37.625H240.328C240.37 38.4271 240.667 39.0417 241.219 39.4688C241.771 39.8958 242.51 40.1094 243.438 40.1094C244.302 40.1094 244.953 39.9479 245.391 39.625C245.839 39.2917 246.062 38.8594 246.062 38.3281ZM258.141 43H253.609V26.0938H258.141V43ZM253.344 21.7188C253.344 21.0417 253.568 20.4844 254.016 20.0469C254.474 19.6094 255.094 19.3906 255.875 19.3906C256.646 19.3906 257.26 19.6094 257.719 20.0469C258.177 20.4844 258.406 21.0417 258.406 21.7188C258.406 22.4062 258.172 22.9688 257.703 23.4062C257.245 23.8438 256.635 24.0625 255.875 24.0625C255.115 24.0625 254.5 23.8438 254.031 23.4062C253.573 22.9688 253.344 22.4062 253.344 21.7188ZM268.906 39.6719C269.74 39.6719 270.417 39.4427 270.938 38.9844C271.458 38.526 271.729 37.9167 271.75 37.1562H275.984C275.974 38.3021 275.661 39.3542 275.047 40.3125C274.432 41.2604 273.589 42 272.516 42.5312C271.453 43.0521 270.276 43.3125 268.984 43.3125C266.568 43.3125 264.661 42.5469 263.266 41.0156C261.87 39.474 261.172 37.349 261.172 34.6406V34.3438C261.172 31.7396 261.865 29.6615 263.25 28.1094C264.635 26.5573 266.536 25.7812 268.953 25.7812C271.068 25.7812 272.76 26.3854 274.031 27.5938C275.312 28.7917 275.964 30.3906 275.984 32.3906H271.75C271.729 31.5156 271.458 30.8073 270.938 30.2656C270.417 29.7135 269.729 29.4375 268.875 29.4375C267.823 29.4375 267.026 29.8229 266.484 30.5938C265.953 31.3542 265.688 32.5938 265.688 34.3125V34.7812C265.688 36.5208 265.953 37.7708 266.484 38.5312C267.016 39.2917 267.823 39.6719 268.906 39.6719ZM304.688 35.4219C304.51 37.8698 303.604 39.7969 301.969 41.2031C300.344 42.6094 298.198 43.3125 295.531 43.3125C292.615 43.3125 290.318 42.3333 288.641 40.375C286.974 38.4062 286.141 35.7083 286.141 32.2812V30.8906C286.141 28.7031 286.526 26.776 287.297 25.1094C288.068 23.4427 289.167 22.1667 290.594 21.2812C292.031 20.3854 293.698 19.9375 295.594 19.9375C298.219 19.9375 300.333 20.6406 301.938 22.0469C303.542 23.4531 304.469 25.4271 304.719 27.9688H300.031C299.917 26.5 299.505 25.4375 298.797 24.7812C298.099 24.1146 297.031 23.7812 295.594 23.7812C294.031 23.7812 292.859 24.3438 292.078 25.4688C291.307 26.5833 290.911 28.3177 290.891 30.6719V32.3906C290.891 34.849 291.26 36.6458 292 37.7812C292.75 38.9167 293.927 39.4844 295.531 39.4844C296.979 39.4844 298.057 39.1562 298.766 38.5C299.484 37.8333 299.896 36.8073 300 35.4219H304.688ZM306.766 34.3906C306.766 32.7135 307.089 31.2188 307.734 29.9062C308.38 28.5938 309.307 27.5781 310.516 26.8594C311.734 26.1406 313.146 25.7812 314.75 25.7812C317.031 25.7812 318.891 26.4792 320.328 27.875C321.776 29.2708 322.583 31.1667 322.75 33.5625L322.781 34.7188C322.781 37.3125 322.057 39.3958 320.609 40.9688C319.161 42.5312 317.219 43.3125 314.781 43.3125C312.344 43.3125 310.396 42.5312 308.938 40.9688C307.49 39.4062 306.766 37.2812 306.766 34.5938V34.3906ZM311.281 34.7188C311.281 36.3229 311.583 37.5521 312.188 38.4062C312.792 39.25 313.656 39.6719 314.781 39.6719C315.875 39.6719 316.729 39.2552 317.344 38.4219C317.958 37.5781 318.266 36.2344 318.266 34.3906C318.266 32.8177 317.958 31.599 317.344 30.7344C316.729 29.8698 315.865 29.4375 314.75 29.4375C313.646 29.4375 312.792 29.8698 312.188 30.7344C311.583 31.5885 311.281 32.9167 311.281 34.7188ZM329.719 26.0938L329.859 28.0469C331.068 26.5365 332.688 25.7812 334.719 25.7812C336.51 25.7812 337.844 26.3073 338.719 27.3594C339.594 28.4115 340.042 29.9844 340.062 32.0781V43H335.547V32.1875C335.547 31.2292 335.339 30.5365 334.922 30.1094C334.505 29.6719 333.812 29.4531 332.844 29.4531C331.573 29.4531 330.62 29.9948 329.984 31.0781V43H325.469V26.0938H329.719ZM348.906 21.9375V26.0938H351.797V29.4062H348.906V37.8438C348.906 38.4688 349.026 38.9167 349.266 39.1875C349.505 39.4583 349.964 39.5938 350.641 39.5938C351.141 39.5938 351.583 39.5573 351.969 39.4844V42.9062C351.083 43.1771 350.172 43.3125 349.234 43.3125C346.068 43.3125 344.453 41.7135 344.391 38.5156V29.4062H341.922V26.0938H344.391V21.9375H348.906ZM363.812 30.3281C363.198 30.2448 362.656 30.2031 362.188 30.2031C360.479 30.2031 359.359 30.7812 358.828 31.9375V43H354.312V26.0938H358.578L358.703 28.1094C359.609 26.5573 360.865 25.7812 362.469 25.7812C362.969 25.7812 363.438 25.849 363.875 25.9844L363.812 30.3281ZM364.734 34.3906C364.734 32.7135 365.057 31.2188 365.703 29.9062C366.349 28.5938 367.276 27.5781 368.484 26.8594C369.703 26.1406 371.115 25.7812 372.719 25.7812C375 25.7812 376.859 26.4792 378.297 27.875C379.745 29.2708 380.552 31.1667 380.719 33.5625L380.75 34.7188C380.75 37.3125 380.026 39.3958 378.578 40.9688C377.13 42.5312 375.188 43.3125 372.75 43.3125C370.312 43.3125 368.365 42.5312 366.906 40.9688C365.458 39.4062 364.734 37.2812 364.734 34.5938V34.3906ZM369.25 34.7188C369.25 36.3229 369.552 37.5521 370.156 38.4062C370.76 39.25 371.625 39.6719 372.75 39.6719C373.844 39.6719 374.698 39.2552 375.312 38.4219C375.927 37.5781 376.234 36.2344 376.234 34.3906C376.234 32.8177 375.927 31.599 375.312 30.7344C374.698 29.8698 373.833 29.4375 372.719 29.4375C371.615 29.4375 370.76 29.8698 370.156 30.7344C369.552 31.5885 369.25 32.9167 369.25 34.7188ZM388.297 43H383.766V19H388.297V43ZM401.188 38.3281C401.188 37.776 400.911 37.3438 400.359 37.0312C399.818 36.7083 398.943 36.4219 397.734 36.1719C393.714 35.3281 391.703 33.6198 391.703 31.0469C391.703 29.5469 392.323 28.2969 393.562 27.2969C394.812 26.2865 396.443 25.7812 398.453 25.7812C400.599 25.7812 402.312 26.2865 403.594 27.2969C404.885 28.3073 405.531 29.6198 405.531 31.2344H401.016C401.016 30.5885 400.807 30.0573 400.391 29.6406C399.974 29.2135 399.323 29 398.438 29C397.677 29 397.089 29.1719 396.672 29.5156C396.255 29.8594 396.047 30.2969 396.047 30.8281C396.047 31.3281 396.281 31.7344 396.75 32.0469C397.229 32.349 398.031 32.6146 399.156 32.8438C400.281 33.0625 401.229 33.3125 402 33.5938C404.385 34.4688 405.578 35.9844 405.578 38.1406C405.578 39.6823 404.917 40.9323 403.594 41.8906C402.271 42.8385 400.562 43.3125 398.469 43.3125C397.052 43.3125 395.792 43.0625 394.688 42.5625C393.594 42.0521 392.734 41.3594 392.109 40.4844C391.484 39.599 391.172 38.6458 391.172 37.625H395.453C395.495 38.4271 395.792 39.0417 396.344 39.4688C396.896 39.8958 397.635 40.1094 398.562 40.1094C399.427 40.1094 400.078 39.9479 400.516 39.625C400.964 39.2917 401.188 38.8594 401.188 38.3281Z" fill="black"/>
</svg>
