<svg width="591" height="70" viewBox="0 0 591 70" fill="none" xmlns="http://www.w3.org/2000/svg">
<rect width="591" height="70" fill="#3188ED" fill-opacity="0.5"/>
<path d="M200.031 27.0469H193.062V46H188.375V27.0469H181.5V23.25H200.031V27.0469ZM210.891 33.3281C210.276 33.2448 209.734 33.2031 209.266 33.2031C207.557 33.2031 206.438 33.7812 205.906 34.9375V46H201.391V29.0938H205.656L205.781 31.1094C206.688 29.5573 207.943 28.7812 209.547 28.7812C210.047 28.7812 210.516 28.849 210.953 28.9844L210.891 33.3281ZM222.406 46C222.198 45.5938 222.047 45.0885 221.953 44.4844C220.859 45.7031 219.438 46.3125 217.688 46.3125C216.031 46.3125 214.656 45.8333 213.562 44.875C212.479 43.9167 211.938 42.7083 211.938 41.25C211.938 39.4583 212.599 38.0833 213.922 37.125C215.255 36.1667 217.177 35.6823 219.688 35.6719H221.766V34.7031C221.766 33.9219 221.562 33.2969 221.156 32.8281C220.76 32.3594 220.13 32.125 219.266 32.125C218.505 32.125 217.906 32.3073 217.469 32.6719C217.042 33.0365 216.828 33.5365 216.828 34.1719H212.312C212.312 33.1927 212.615 32.2865 213.219 31.4531C213.823 30.6198 214.677 29.9688 215.781 29.5C216.885 29.0208 218.125 28.7812 219.5 28.7812C221.583 28.7812 223.234 29.3073 224.453 30.3594C225.682 31.401 226.297 32.8698 226.297 34.7656V42.0938C226.307 43.6979 226.531 44.9115 226.969 45.7344V46H222.406ZM218.672 42.8594C219.339 42.8594 219.953 42.7135 220.516 42.4219C221.078 42.1198 221.495 41.7188 221.766 41.2188V38.3125H220.078C217.818 38.3125 216.615 39.0938 216.469 40.6562L216.453 40.9219C216.453 41.4844 216.651 41.9479 217.047 42.3125C217.443 42.6771 217.984 42.8594 218.672 42.8594ZM233.922 29.0938L234.062 31.0469C235.271 29.5365 236.891 28.7812 238.922 28.7812C240.714 28.7812 242.047 29.3073 242.922 30.3594C243.797 31.4115 244.245 32.9844 244.266 35.0781V46H239.75V35.1875C239.75 34.2292 239.542 33.5365 239.125 33.1094C238.708 32.6719 238.016 32.4531 237.047 32.4531C235.776 32.4531 234.823 32.9948 234.188 34.0781V46H229.672V29.0938H233.922ZM256.859 41.3281C256.859 40.776 256.583 40.3438 256.031 40.0312C255.49 39.7083 254.615 39.4219 253.406 39.1719C249.385 38.3281 247.375 36.6198 247.375 34.0469C247.375 32.5469 247.995 31.2969 249.234 30.2969C250.484 29.2865 252.115 28.7812 254.125 28.7812C256.271 28.7812 257.984 29.2865 259.266 30.2969C260.557 31.3073 261.203 32.6198 261.203 34.2344H256.688C256.688 33.5885 256.479 33.0573 256.062 32.6406C255.646 32.2135 254.995 32 254.109 32C253.349 32 252.76 32.1719 252.344 32.5156C251.927 32.8594 251.719 33.2969 251.719 33.8281C251.719 34.3281 251.953 34.7344 252.422 35.0469C252.901 35.349 253.703 35.6146 254.828 35.8438C255.953 36.0625 256.901 36.3125 257.672 36.5938C260.057 37.4688 261.25 38.9844 261.25 41.1406C261.25 42.6823 260.589 43.9323 259.266 44.8906C257.943 45.8385 256.234 46.3125 254.141 46.3125C252.724 46.3125 251.464 46.0625 250.359 45.5625C249.266 45.0521 248.406 44.3594 247.781 43.4844C247.156 42.599 246.844 41.6458 246.844 40.625H251.125C251.167 41.4271 251.464 42.0417 252.016 42.4688C252.568 42.8958 253.307 43.1094 254.234 43.1094C255.099 43.1094 255.75 42.9479 256.188 42.625C256.635 42.2917 256.859 41.8594 256.859 41.3281ZM268.938 46H264.406V22H268.938V46ZM282.469 46C282.26 45.5938 282.109 45.0885 282.016 44.4844C280.922 45.7031 279.5 46.3125 277.75 46.3125C276.094 46.3125 274.719 45.8333 273.625 44.875C272.542 43.9167 272 42.7083 272 41.25C272 39.4583 272.661 38.0833 273.984 37.125C275.318 36.1667 277.24 35.6823 279.75 35.6719H281.828V34.7031C281.828 33.9219 281.625 33.2969 281.219 32.8281C280.823 32.3594 280.193 32.125 279.328 32.125C278.568 32.125 277.969 32.3073 277.531 32.6719C277.104 33.0365 276.891 33.5365 276.891 34.1719H272.375C272.375 33.1927 272.677 32.2865 273.281 31.4531C273.885 30.6198 274.74 29.9688 275.844 29.5C276.948 29.0208 278.188 28.7812 279.562 28.7812C281.646 28.7812 283.297 29.3073 284.516 30.3594C285.745 31.401 286.359 32.8698 286.359 34.7656V42.0938C286.37 43.6979 286.594 44.9115 287.031 45.7344V46H282.469ZM278.734 42.8594C279.401 42.8594 280.016 42.7135 280.578 42.4219C281.141 42.1198 281.557 41.7188 281.828 41.2188V38.3125H280.141C277.88 38.3125 276.677 39.0938 276.531 40.6562L276.516 40.9219C276.516 41.4844 276.714 41.9479 277.109 42.3125C277.505 42.6771 278.047 42.8594 278.734 42.8594ZM295.234 24.9375V29.0938H298.125V32.4062H295.234V40.8438C295.234 41.4688 295.354 41.9167 295.594 42.1875C295.833 42.4583 296.292 42.5938 296.969 42.5938C297.469 42.5938 297.911 42.5573 298.297 42.4844V45.9062C297.411 46.1771 296.5 46.3125 295.562 46.3125C292.396 46.3125 290.781 44.7135 290.719 41.5156V32.4062H288.25V29.0938H290.719V24.9375H295.234ZM308.422 46.3125C305.943 46.3125 303.922 45.5521 302.359 44.0312C300.807 42.5104 300.031 40.4844 300.031 37.9531V37.5156C300.031 35.8177 300.359 34.3021 301.016 32.9688C301.672 31.625 302.599 30.5938 303.797 29.875C305.005 29.1458 306.38 28.7812 307.922 28.7812C310.234 28.7812 312.052 29.5104 313.375 30.9688C314.708 32.4271 315.375 34.4948 315.375 37.1719V39.0156H304.609C304.755 40.1198 305.193 41.0052 305.922 41.6719C306.661 42.3385 307.594 42.6719 308.719 42.6719C310.458 42.6719 311.818 42.0417 312.797 40.7812L315.016 43.2656C314.339 44.224 313.422 44.974 312.266 45.5156C311.109 46.0469 309.828 46.3125 308.422 46.3125ZM307.906 32.4375C307.01 32.4375 306.281 32.7396 305.719 33.3438C305.167 33.9479 304.812 34.8125 304.656 35.9375H310.938V35.5781C310.917 34.5781 310.646 33.8073 310.125 33.2656C309.604 32.7135 308.865 32.4375 307.906 32.4375ZM338.016 40.0312C338.016 39.1458 337.703 38.4688 337.078 38C336.453 37.5208 335.328 37.0208 333.703 36.5C332.078 35.9688 330.792 35.4479 329.844 34.9375C327.26 33.5417 325.969 31.6615 325.969 29.2969C325.969 28.0677 326.312 26.974 327 26.0156C327.698 25.0469 328.693 24.2917 329.984 23.75C331.286 23.2083 332.745 22.9375 334.359 22.9375C335.984 22.9375 337.432 23.2344 338.703 23.8281C339.974 24.4115 340.958 25.2396 341.656 26.3125C342.365 27.3854 342.719 28.6042 342.719 29.9688H338.031C338.031 28.9271 337.703 28.1198 337.047 27.5469C336.391 26.9635 335.469 26.6719 334.281 26.6719C333.135 26.6719 332.245 26.9167 331.609 27.4062C330.974 27.8854 330.656 28.5208 330.656 29.3125C330.656 30.0521 331.026 30.6719 331.766 31.1719C332.516 31.6719 333.615 32.1406 335.062 32.5781C337.729 33.3802 339.672 34.375 340.891 35.5625C342.109 36.75 342.719 38.2292 342.719 40C342.719 41.9688 341.974 43.5156 340.484 44.6406C338.995 45.7552 336.99 46.3125 334.469 46.3125C332.719 46.3125 331.125 45.9948 329.688 45.3594C328.25 44.7135 327.151 43.8333 326.391 42.7188C325.641 41.6042 325.266 40.3125 325.266 38.8438H329.969C329.969 41.3542 331.469 42.6094 334.469 42.6094C335.583 42.6094 336.453 42.3854 337.078 41.9375C337.703 41.4792 338.016 40.8438 338.016 40.0312ZM360.828 37.7031C360.828 40.3073 360.234 42.3958 359.047 43.9688C357.87 45.5312 356.276 46.3125 354.266 46.3125C352.557 46.3125 351.177 45.7188 350.125 44.5312V52.5H345.609V29.0938H349.797L349.953 30.75C351.047 29.4375 352.474 28.7812 354.234 28.7812C356.318 28.7812 357.938 29.5521 359.094 31.0938C360.25 32.6354 360.828 34.7604 360.828 37.4688V37.7031ZM356.312 37.375C356.312 35.8021 356.031 34.5885 355.469 33.7344C354.917 32.8802 354.109 32.4531 353.047 32.4531C351.63 32.4531 350.656 32.9948 350.125 34.0781V41C350.677 42.1146 351.661 42.6719 353.078 42.6719C355.234 42.6719 356.312 40.9062 356.312 37.375ZM371.422 46.3125C368.943 46.3125 366.922 45.5521 365.359 44.0312C363.807 42.5104 363.031 40.4844 363.031 37.9531V37.5156C363.031 35.8177 363.359 34.3021 364.016 32.9688C364.672 31.625 365.599 30.5938 366.797 29.875C368.005 29.1458 369.38 28.7812 370.922 28.7812C373.234 28.7812 375.052 29.5104 376.375 30.9688C377.708 32.4271 378.375 34.4948 378.375 37.1719V39.0156H367.609C367.755 40.1198 368.193 41.0052 368.922 41.6719C369.661 42.3385 370.594 42.6719 371.719 42.6719C373.458 42.6719 374.818 42.0417 375.797 40.7812L378.016 43.2656C377.339 44.224 376.422 44.974 375.266 45.5156C374.109 46.0469 372.828 46.3125 371.422 46.3125ZM370.906 32.4375C370.01 32.4375 369.281 32.7396 368.719 33.3438C368.167 33.9479 367.812 34.8125 367.656 35.9375H373.938V35.5781C373.917 34.5781 373.646 33.8073 373.125 33.2656C372.604 32.7135 371.865 32.4375 370.906 32.4375ZM388.734 46.3125C386.255 46.3125 384.234 45.5521 382.672 44.0312C381.12 42.5104 380.344 40.4844 380.344 37.9531V37.5156C380.344 35.8177 380.672 34.3021 381.328 32.9688C381.984 31.625 382.911 30.5938 384.109 29.875C385.318 29.1458 386.693 28.7812 388.234 28.7812C390.547 28.7812 392.365 29.5104 393.688 30.9688C395.021 32.4271 395.688 34.4948 395.688 37.1719V39.0156H384.922C385.068 40.1198 385.505 41.0052 386.234 41.6719C386.974 42.3385 387.906 42.6719 389.031 42.6719C390.771 42.6719 392.13 42.0417 393.109 40.7812L395.328 43.2656C394.651 44.224 393.734 44.974 392.578 45.5156C391.422 46.0469 390.141 46.3125 388.734 46.3125ZM388.219 32.4375C387.323 32.4375 386.594 32.7396 386.031 33.3438C385.479 33.9479 385.125 34.8125 384.969 35.9375H391.25V35.5781C391.229 34.5781 390.958 33.8073 390.438 33.2656C389.917 32.7135 389.177 32.4375 388.219 32.4375ZM405.297 42.6719C406.13 42.6719 406.807 42.4427 407.328 41.9844C407.849 41.526 408.12 40.9167 408.141 40.1562H412.375C412.365 41.3021 412.052 42.3542 411.438 43.3125C410.823 44.2604 409.979 45 408.906 45.5312C407.844 46.0521 406.667 46.3125 405.375 46.3125C402.958 46.3125 401.052 45.5469 399.656 44.0156C398.26 42.474 397.562 40.349 397.562 37.6406V37.3438C397.562 34.7396 398.255 32.6615 399.641 31.1094C401.026 29.5573 402.927 28.7812 405.344 28.7812C407.458 28.7812 409.151 29.3854 410.422 30.5938C411.703 31.7917 412.354 33.3906 412.375 35.3906H408.141C408.12 34.5156 407.849 33.8073 407.328 33.2656C406.807 32.7135 406.12 32.4375 405.266 32.4375C404.214 32.4375 403.417 32.8229 402.875 33.5938C402.344 34.3542 402.078 35.5938 402.078 37.3125V37.7812C402.078 39.5208 402.344 40.7708 402.875 41.5312C403.406 42.2917 404.214 42.6719 405.297 42.6719ZM419.359 30.9375C420.557 29.5 422.062 28.7812 423.875 28.7812C427.542 28.7812 429.401 30.9115 429.453 35.1719V46H424.938V35.2969C424.938 34.3281 424.729 33.6146 424.312 33.1562C423.896 32.6875 423.203 32.4531 422.234 32.4531C420.911 32.4531 419.953 32.9635 419.359 33.9844V46H414.844V22H419.359V30.9375Z" fill="black"/>
</svg>
