<svg width="591" height="70" viewBox="0 0 591 70" fill="none" xmlns="http://www.w3.org/2000/svg">
<rect width="591" height="70" fill="#3188ED" fill-opacity="0.5"/>
<path d="M175.703 27.0469H168.734V46H164.047V27.0469H157.172V23.25H175.703V27.0469ZM186.562 33.3281C185.948 33.2448 185.406 33.2031 184.938 33.2031C183.229 33.2031 182.109 33.7812 181.578 34.9375V46H177.062V29.0938H181.328L181.453 31.1094C182.359 29.5573 183.615 28.7812 185.219 28.7812C185.719 28.7812 186.188 28.849 186.625 28.9844L186.562 33.3281ZM198.078 46C197.87 45.5938 197.719 45.0885 197.625 44.4844C196.531 45.7031 195.109 46.3125 193.359 46.3125C191.703 46.3125 190.328 45.8333 189.234 44.875C188.151 43.9167 187.609 42.7083 187.609 41.25C187.609 39.4583 188.271 38.0833 189.594 37.125C190.927 36.1667 192.849 35.6823 195.359 35.6719H197.438V34.7031C197.438 33.9219 197.234 33.2969 196.828 32.8281C196.432 32.3594 195.802 32.125 194.938 32.125C194.177 32.125 193.578 32.3073 193.141 32.6719C192.714 33.0365 192.5 33.5365 192.5 34.1719H187.984C187.984 33.1927 188.286 32.2865 188.891 31.4531C189.495 30.6198 190.349 29.9688 191.453 29.5C192.557 29.0208 193.797 28.7812 195.172 28.7812C197.255 28.7812 198.906 29.3073 200.125 30.3594C201.354 31.401 201.969 32.8698 201.969 34.7656V42.0938C201.979 43.6979 202.203 44.9115 202.641 45.7344V46H198.078ZM194.344 42.8594C195.01 42.8594 195.625 42.7135 196.188 42.4219C196.75 42.1198 197.167 41.7188 197.438 41.2188V38.3125H195.75C193.49 38.3125 192.286 39.0938 192.141 40.6562L192.125 40.9219C192.125 41.4844 192.323 41.9479 192.719 42.3125C193.115 42.6771 193.656 42.8594 194.344 42.8594ZM209.594 29.0938L209.734 31.0469C210.943 29.5365 212.562 28.7812 214.594 28.7812C216.385 28.7812 217.719 29.3073 218.594 30.3594C219.469 31.4115 219.917 32.9844 219.938 35.0781V46H215.422V35.1875C215.422 34.2292 215.214 33.5365 214.797 33.1094C214.38 32.6719 213.688 32.4531 212.719 32.4531C211.448 32.4531 210.495 32.9948 209.859 34.0781V46H205.344V29.0938H209.594ZM232.531 41.3281C232.531 40.776 232.255 40.3438 231.703 40.0312C231.161 39.7083 230.286 39.4219 229.078 39.1719C225.057 38.3281 223.047 36.6198 223.047 34.0469C223.047 32.5469 223.667 31.2969 224.906 30.2969C226.156 29.2865 227.786 28.7812 229.797 28.7812C231.943 28.7812 233.656 29.2865 234.938 30.2969C236.229 31.3073 236.875 32.6198 236.875 34.2344H232.359C232.359 33.5885 232.151 33.0573 231.734 32.6406C231.318 32.2135 230.667 32 229.781 32C229.021 32 228.432 32.1719 228.016 32.5156C227.599 32.8594 227.391 33.2969 227.391 33.8281C227.391 34.3281 227.625 34.7344 228.094 35.0469C228.573 35.349 229.375 35.6146 230.5 35.8438C231.625 36.0625 232.573 36.3125 233.344 36.5938C235.729 37.4688 236.922 38.9844 236.922 41.1406C236.922 42.6823 236.26 43.9323 234.938 44.8906C233.615 45.8385 231.906 46.3125 229.812 46.3125C228.396 46.3125 227.135 46.0625 226.031 45.5625C224.938 45.0521 224.078 44.3594 223.453 43.4844C222.828 42.599 222.516 41.6458 222.516 40.625H226.797C226.839 41.4271 227.135 42.0417 227.688 42.4688C228.24 42.8958 228.979 43.1094 229.906 43.1094C230.771 43.1094 231.422 42.9479 231.859 42.625C232.307 42.2917 232.531 41.8594 232.531 41.3281ZM244.609 46H240.078V22H244.609V46ZM258.141 46C257.932 45.5938 257.781 45.0885 257.688 44.4844C256.594 45.7031 255.172 46.3125 253.422 46.3125C251.766 46.3125 250.391 45.8333 249.297 44.875C248.214 43.9167 247.672 42.7083 247.672 41.25C247.672 39.4583 248.333 38.0833 249.656 37.125C250.99 36.1667 252.911 35.6823 255.422 35.6719H257.5V34.7031C257.5 33.9219 257.297 33.2969 256.891 32.8281C256.495 32.3594 255.865 32.125 255 32.125C254.24 32.125 253.641 32.3073 253.203 32.6719C252.776 33.0365 252.562 33.5365 252.562 34.1719H248.047C248.047 33.1927 248.349 32.2865 248.953 31.4531C249.557 30.6198 250.411 29.9688 251.516 29.5C252.62 29.0208 253.859 28.7812 255.234 28.7812C257.318 28.7812 258.969 29.3073 260.188 30.3594C261.417 31.401 262.031 32.8698 262.031 34.7656V42.0938C262.042 43.6979 262.266 44.9115 262.703 45.7344V46H258.141ZM254.406 42.8594C255.073 42.8594 255.688 42.7135 256.25 42.4219C256.812 42.1198 257.229 41.7188 257.5 41.2188V38.3125H255.812C253.552 38.3125 252.349 39.0938 252.203 40.6562L252.188 40.9219C252.188 41.4844 252.385 41.9479 252.781 42.3125C253.177 42.6771 253.719 42.8594 254.406 42.8594ZM270.906 24.9375V29.0938H273.797V32.4062H270.906V40.8438C270.906 41.4688 271.026 41.9167 271.266 42.1875C271.505 42.4583 271.964 42.5938 272.641 42.5938C273.141 42.5938 273.583 42.5573 273.969 42.4844V45.9062C273.083 46.1771 272.172 46.3125 271.234 46.3125C268.068 46.3125 266.453 44.7135 266.391 41.5156V32.4062H263.922V29.0938H266.391V24.9375H270.906ZM284.094 46.3125C281.615 46.3125 279.594 45.5521 278.031 44.0312C276.479 42.5104 275.703 40.4844 275.703 37.9531V37.5156C275.703 35.8177 276.031 34.3021 276.688 32.9688C277.344 31.625 278.271 30.5938 279.469 29.875C280.677 29.1458 282.052 28.7812 283.594 28.7812C285.906 28.7812 287.724 29.5104 289.047 30.9688C290.38 32.4271 291.047 34.4948 291.047 37.1719V39.0156H280.281C280.427 40.1198 280.865 41.0052 281.594 41.6719C282.333 42.3385 283.266 42.6719 284.391 42.6719C286.13 42.6719 287.49 42.0417 288.469 40.7812L290.688 43.2656C290.01 44.224 289.094 44.974 287.938 45.5156C286.781 46.0469 285.5 46.3125 284.094 46.3125ZM283.578 32.4375C282.682 32.4375 281.953 32.7396 281.391 33.3438C280.839 33.9479 280.484 34.8125 280.328 35.9375H286.609V35.5781C286.589 34.5781 286.318 33.8073 285.797 33.2656C285.276 32.7135 284.536 32.4375 283.578 32.4375ZM310.297 40.3594L315.453 23.25H320.672L312.75 46H307.859L299.969 23.25H305.172L310.297 40.3594ZM321.109 37.3906C321.109 35.7135 321.432 34.2188 322.078 32.9062C322.724 31.5938 323.651 30.5781 324.859 29.8594C326.078 29.1406 327.49 28.7812 329.094 28.7812C331.375 28.7812 333.234 29.4792 334.672 30.875C336.12 32.2708 336.927 34.1667 337.094 36.5625L337.125 37.7188C337.125 40.3125 336.401 42.3958 334.953 43.9688C333.505 45.5312 331.562 46.3125 329.125 46.3125C326.688 46.3125 324.74 45.5312 323.281 43.9688C321.833 42.4062 321.109 40.2812 321.109 37.5938V37.3906ZM325.625 37.7188C325.625 39.3229 325.927 40.5521 326.531 41.4062C327.135 42.25 328 42.6719 329.125 42.6719C330.219 42.6719 331.073 42.2552 331.688 41.4219C332.302 40.5781 332.609 39.2344 332.609 37.3906C332.609 35.8177 332.302 34.599 331.688 33.7344C331.073 32.8698 330.208 32.4375 329.094 32.4375C327.99 32.4375 327.135 32.8698 326.531 33.7344C325.927 34.5885 325.625 35.9167 325.625 37.7188ZM344.672 46H340.141V29.0938H344.672V46ZM339.875 24.7188C339.875 24.0417 340.099 23.4844 340.547 23.0469C341.005 22.6094 341.625 22.3906 342.406 22.3906C343.177 22.3906 343.792 22.6094 344.25 23.0469C344.708 23.4844 344.938 24.0417 344.938 24.7188C344.938 25.4062 344.703 25.9688 344.234 26.4062C343.776 26.8438 343.167 27.0625 342.406 27.0625C341.646 27.0625 341.031 26.8438 340.562 26.4062C340.104 25.9688 339.875 25.4062 339.875 24.7188ZM355.438 42.6719C356.271 42.6719 356.948 42.4427 357.469 41.9844C357.99 41.526 358.26 40.9167 358.281 40.1562H362.516C362.505 41.3021 362.193 42.3542 361.578 43.3125C360.964 44.2604 360.12 45 359.047 45.5312C357.984 46.0521 356.807 46.3125 355.516 46.3125C353.099 46.3125 351.193 45.5469 349.797 44.0156C348.401 42.474 347.703 40.349 347.703 37.6406V37.3438C347.703 34.7396 348.396 32.6615 349.781 31.1094C351.167 29.5573 353.068 28.7812 355.484 28.7812C357.599 28.7812 359.292 29.3854 360.562 30.5938C361.844 31.7917 362.495 33.3906 362.516 35.3906H358.281C358.26 34.5156 357.99 33.8073 357.469 33.2656C356.948 32.7135 356.26 32.4375 355.406 32.4375C354.354 32.4375 353.557 32.8229 353.016 33.5938C352.484 34.3542 352.219 35.5938 352.219 37.3125V37.7812C352.219 39.5208 352.484 40.7708 353.016 41.5312C353.547 42.2917 354.354 42.6719 355.438 42.6719ZM372.875 46.3125C370.396 46.3125 368.375 45.5521 366.812 44.0312C365.26 42.5104 364.484 40.4844 364.484 37.9531V37.5156C364.484 35.8177 364.812 34.3021 365.469 32.9688C366.125 31.625 367.052 30.5938 368.25 29.875C369.458 29.1458 370.833 28.7812 372.375 28.7812C374.688 28.7812 376.505 29.5104 377.828 30.9688C379.161 32.4271 379.828 34.4948 379.828 37.1719V39.0156H369.062C369.208 40.1198 369.646 41.0052 370.375 41.6719C371.115 42.3385 372.047 42.6719 373.172 42.6719C374.911 42.6719 376.271 42.0417 377.25 40.7812L379.469 43.2656C378.792 44.224 377.875 44.974 376.719 45.5156C375.562 46.0469 374.281 46.3125 372.875 46.3125ZM372.359 32.4375C371.464 32.4375 370.734 32.7396 370.172 33.3438C369.62 33.9479 369.266 34.8125 369.109 35.9375H375.391V35.5781C375.37 34.5781 375.099 33.8073 374.578 33.2656C374.057 32.7135 373.318 32.4375 372.359 32.4375ZM408.531 38.4219C408.354 40.8698 407.448 42.7969 405.812 44.2031C404.188 45.6094 402.042 46.3125 399.375 46.3125C396.458 46.3125 394.161 45.3333 392.484 43.375C390.818 41.4062 389.984 38.7083 389.984 35.2812V33.8906C389.984 31.7031 390.37 29.776 391.141 28.1094C391.911 26.4427 393.01 25.1667 394.438 24.2812C395.875 23.3854 397.542 22.9375 399.438 22.9375C402.062 22.9375 404.177 23.6406 405.781 25.0469C407.385 26.4531 408.312 28.4271 408.562 30.9688H403.875C403.76 29.5 403.349 28.4375 402.641 27.7812C401.943 27.1146 400.875 26.7812 399.438 26.7812C397.875 26.7812 396.703 27.3438 395.922 28.4688C395.151 29.5833 394.755 31.3177 394.734 33.6719V35.3906C394.734 37.849 395.104 39.6458 395.844 40.7812C396.594 41.9167 397.771 42.4844 399.375 42.4844C400.823 42.4844 401.901 42.1562 402.609 41.5C403.328 40.8333 403.74 39.8073 403.844 38.4219H408.531ZM415.719 30.9375C416.917 29.5 418.422 28.7812 420.234 28.7812C423.901 28.7812 425.76 30.9115 425.812 35.1719V46H421.297V35.2969C421.297 34.3281 421.089 33.6146 420.672 33.1562C420.255 32.6875 419.562 32.4531 418.594 32.4531C417.271 32.4531 416.312 32.9635 415.719 33.9844V46H411.203V22H415.719V30.9375ZM439.016 46C438.807 45.5938 438.656 45.0885 438.562 44.4844C437.469 45.7031 436.047 46.3125 434.297 46.3125C432.641 46.3125 431.266 45.8333 430.172 44.875C429.089 43.9167 428.547 42.7083 428.547 41.25C428.547 39.4583 429.208 38.0833 430.531 37.125C431.865 36.1667 433.786 35.6823 436.297 35.6719H438.375V34.7031C438.375 33.9219 438.172 33.2969 437.766 32.8281C437.37 32.3594 436.74 32.125 435.875 32.125C435.115 32.125 434.516 32.3073 434.078 32.6719C433.651 33.0365 433.438 33.5365 433.438 34.1719H428.922C428.922 33.1927 429.224 32.2865 429.828 31.4531C430.432 30.6198 431.286 29.9688 432.391 29.5C433.495 29.0208 434.734 28.7812 436.109 28.7812C438.193 28.7812 439.844 29.3073 441.062 30.3594C442.292 31.401 442.906 32.8698 442.906 34.7656V42.0938C442.917 43.6979 443.141 44.9115 443.578 45.7344V46H439.016ZM435.281 42.8594C435.948 42.8594 436.562 42.7135 437.125 42.4219C437.688 42.1198 438.104 41.7188 438.375 41.2188V38.3125H436.688C434.427 38.3125 433.224 39.0938 433.078 40.6562L433.062 40.9219C433.062 41.4844 433.26 41.9479 433.656 42.3125C434.052 42.6771 434.594 42.8594 435.281 42.8594ZM451.781 24.9375V29.0938H454.672V32.4062H451.781V40.8438C451.781 41.4688 451.901 41.9167 452.141 42.1875C452.38 42.4583 452.839 42.5938 453.516 42.5938C454.016 42.5938 454.458 42.5573 454.844 42.4844V45.9062C453.958 46.1771 453.047 46.3125 452.109 46.3125C448.943 46.3125 447.328 44.7135 447.266 41.5156V32.4062H444.797V29.0938H447.266V24.9375H451.781Z" fill="black"/>
</svg>
