<svg width="68" height="59" viewBox="0 0 68 59" fill="none" xmlns="http://www.w3.org/2000/svg">
<path d="M53.229 18.9948H13.7531C10.6232 18.9948 8.11365 21.1736 8.11365 23.8365V52.8871C8.11365 55.55 10.6232 57.7288 13.7531 57.7288H53.229C56.3307 57.7288 58.8685 55.55 58.8685 52.8871V23.8365C58.8685 21.1736 56.3307 18.9948 53.229 18.9948ZM30.6713 35.9409H26.4418V34.7305H20.8024V41.9931H26.4418V40.7827H30.6713V43.2035C30.6713 44.535 29.4025 45.6244 27.8516 45.6244H19.3925C17.8417 45.6244 16.5728 44.535 16.5728 43.2035V33.52C16.5728 32.1885 17.8417 31.0992 19.3925 31.0992H27.8516C29.4025 31.0992 30.6713 32.1885 30.6713 33.52V35.9409ZM50.4093 35.9409H46.1798V34.7305H40.5403V41.9931H46.1798V40.7827H50.4093V43.2035C50.4093 44.535 49.1405 45.6244 47.5896 45.6244H39.1305C37.5796 45.6244 36.3108 44.535 36.3108 43.2035V33.52C36.3108 32.1885 37.5796 31.0992 39.1305 31.0992H47.5896C49.1405 31.0992 50.4093 32.1885 50.4093 33.52V35.9409Z" fill="white"/>
</svg>
