<svg width="57" height="41" viewBox="0 0 57 41" fill="none" xmlns="http://www.w3.org/2000/svg">
<path d="M44.1049 39.6449C42.698 39.09 41.9762 38.0073 42.6451 37.4551C43.0152 37.1496 42.8747 36.6178 40.8268 30.5733C38.2772 23.048 37.9801 22.3371 37.0051 21.4274C36.1478 20.6277 35.7577 20.5519 31.4268 20.3437C29.2846 20.2407 27.8366 20.0523 27.4402 19.825C26.3996 19.2283 25.6396 18.006 25.4814 16.6746C25.2087 14.3784 25.0988 14.0448 24.4001 13.393L23.7012 12.741H18.0176C14.3836 12.741 12.3339 12.6479 12.3339 12.483C12.3339 12.3188 10.4711 12.2249 7.21102 12.2249C4.39342 12.2249 1.90628 12.1173 1.68404 11.9858C1.46178 11.8542 1.09667 11.6837 0.872678 11.6068C0.54982 11.496 0.465426 11.1746 0.465426 10.0551C0.465426 9.2785 0.570152 8.57135 0.698139 8.48365C1.09169 8.21398 0.956253 7.83859 0.465426 7.83859C0.0325805 7.83859 0 7.66658 0 5.38101C0 2.96613 0.0107019 2.91895 0.610551 2.66605C0.946355 2.5245 1.41321 2.13789 1.64801 1.80692C1.9347 1.40283 2.51945 1.10056 3.42806 0.886775C5.24066 0.460285 6.16689 0.586171 6.1672 1.25906C6.1672 1.76965 6.34528 1.77589 23.0142 1.85027L39.8609 1.92544L42.3293 1.13123C43.6869 0.694412 45.0333 0.227667 45.3213 0.0940139C45.7773 -0.117609 45.9234 -0.0174799 46.4527 0.869323C46.787 1.4294 47.2415 1.95133 47.4626 2.02916C47.6838 2.107 48.004 2.45903 48.1741 2.81146C48.5037 3.49442 48.7536 3.61212 48.9865 3.19422C49.234 2.7502 50.4777 2.91243 50.9646 3.45224C51.635 4.19553 51.5507 5.09997 50.7405 5.85582C50.3612 6.20964 49.9566 6.53926 49.8412 6.58831C49.7259 6.63737 49.6958 7.18785 49.7744 7.81161C49.9454 9.16761 50.6591 9.87182 52.0761 10.0826C53.3114 10.2663 54.0231 10.0556 54.8854 9.25112C55.6501 8.5377 55.9902 8.73953 55.7573 9.76853C55.4843 10.9743 54.5225 11.8706 52.7192 12.5999C50.7458 13.3979 49.8212 14.3575 49.7672 15.6635C49.6704 18.0058 49.9996 19.067 51.1288 20.0529C51.8405 20.6743 52.3955 21.8875 52.2114 22.4194C52.1213 22.6797 53.0764 25.1647 54.6996 28.8939C57.7312 35.8584 57.7211 35.5544 54.9369 36.0125L53.2516 36.2898L53.4085 37.2229C53.4948 37.7362 53.5824 38.2588 53.6031 38.3844C53.6554 38.7012 49.1276 39.7807 47.0085 39.9568C45.6719 40.0678 44.9918 39.9947 44.1049 39.6449ZM31.5911 18.3352C32.2762 17.2195 32.2823 15.5931 31.6064 14.2597C31.1109 13.2822 31.0657 13.2571 29.8029 13.258C27.1771 13.2601 25.7998 15.3304 26.8815 17.6497C27.3667 18.6898 28.2776 19.1693 29.7876 19.1794C30.9789 19.1874 31.1037 19.1289 31.5911 18.3352ZM33.511 18.0366C33.511 17.3807 33.1188 17.389 32.8469 18.0507C32.4853 18.9304 32.5061 18.9956 33.0456 18.6755C33.3015 18.5236 33.511 18.2361 33.511 18.0366V18.0366ZM34.324 15.832C34.1433 15.2008 33.8392 15.1778 33.539 15.7726C33.3737 16.1001 33.4145 16.3506 33.6878 16.6854C34.0226 17.0955 34.087 17.1021 34.2673 16.7448C34.3789 16.5238 34.4044 16.113 34.324 15.832ZM33.511 14.4457C33.511 14.248 33.3389 14.0131 33.1286 13.9236C32.6447 13.7177 32.5302 13.8447 32.7159 14.3812C32.8943 14.8968 33.511 14.9468 33.511 14.4457ZM50.049 5.24931C50.5574 4.94769 50.6283 4.47264 50.2308 4.03196C49.8698 3.63173 49.1029 4.0917 49.1029 4.70842C49.1029 5.50585 49.3646 5.65545 50.049 5.24931Z" fill="white"/>
</svg>
