<svg width="38" height="50" viewBox="0 0 38 50" fill="none" xmlns="http://www.w3.org/2000/svg">
<path d="M11.9747 7.02436C11.9747 7.02436 13.1826 4.53649 15.0744 3.46447C16.9661 2.39245 17.8322 1.88681 18.8122 1.88681C19.7922 1.88681 21.5927 2.06885 23.416 3.22181C25.2393 4.37468 26.0143 4.98149 26.6068 5.85128C27.1994 6.72102 27.4957 7.26713 27.4501 7.3683C27.4045 7.46943 23.8947 9.28979 23.8947 9.28979C23.8947 9.28979 23.5072 9.43137 23.416 9.31001C23.3249 9.18865 22.6867 8.23799 22.0713 7.83353C21.4559 7.42899 20.5442 7.06492 19.7466 7.10537C18.9489 7.14582 18.2423 7.12559 17.513 7.77284C16.7836 8.42009 16.6013 8.60213 16.6013 8.60213C16.6013 8.60213 16.4418 8.8853 16.2366 8.8044C16.0329 8.72344 12.089 7.22663 12.089 7.22663L11.9747 7.02436Z" fill="white" stroke="white"/>
<path d="M12.1036 8.76639L15.3913 9.96777C15.3913 9.96777 15.7781 10.1108 15.7297 10.2395C15.6814 10.3682 15.5202 10.5256 15.4235 10.9117C15.3268 11.2979 15.1979 11.7126 15.2301 11.8271C15.2624 11.9415 15.1334 12.2847 14.7789 12.1989C14.4243 12.1131 13.6024 11.87 13.409 11.87C13.2156 11.87 12.297 11.684 12.1841 11.684C12.0713 11.684 12.1035 11.6697 11.8296 11.541C11.5556 11.4123 11.3783 11.4552 11.0882 11.4266C10.7981 11.398 10.637 11.4409 10.6209 11.3408C10.6047 11.2407 10.6209 10.9975 10.7014 10.7687C10.782 10.5399 11.2494 8.98093 11.2494 8.98093C11.2494 8.98093 11.2333 8.70919 11.475 8.69489C11.7167 8.68059 12.1035 8.7664 12.1035 8.7664L12.1036 8.76639Z" fill="white" stroke="white"/>
<path d="M11.2651 13.2149C11.2651 13.2149 13.4569 13.7441 13.8276 13.7584C14.1982 13.7727 14.4883 13.8585 14.4883 13.8585C14.4883 13.8585 14.7623 13.8299 14.7301 13.9872C14.6978 14.1446 14.585 15.3173 14.6011 15.5748C14.6172 15.8322 14.5528 16.0468 14.3755 16.104C14.1982 16.1612 13.8598 16.1898 13.4569 16.1898C13.054 16.1898 12.5383 16.1898 12.232 16.1755C11.9258 16.1612 11.6841 16.0611 11.394 16.0182C11.1039 15.9752 11.1683 15.9323 10.701 15.8894C10.2336 15.8465 10.0725 15.918 9.92742 15.8036C9.78237 15.6892 9.68568 15.7178 9.71791 15.4031C9.75014 15.0885 9.71791 14.9884 9.78238 14.6737C9.84684 14.3591 9.89519 14.1016 10.008 13.7727C10.1208 13.4437 10.0564 13.3579 10.2175 13.2292C10.3787 13.1005 10.2497 13.0433 10.5398 13.0433C10.8299 13.0433 10.9911 13.0862 11.1039 13.1291C11.2167 13.172 11.265 13.2149 11.265 13.2149L11.2651 13.2149Z" fill="white" stroke="white"/>
<path d="M9.81467 17.5191L14.5366 17.6765C14.5366 17.6765 14.585 19.0066 14.6978 19.4214C14.8106 19.8361 14.9556 19.9649 14.8106 20.0364C14.6655 20.1079 12.8606 20.4082 12.1354 20.4797C11.4101 20.5513 10.8622 20.5227 10.5398 20.5227H9.97578L9.81467 17.5191Z" fill="white" stroke="white"/>
<path d="M10.4754 22.1245L15.1652 21.438C15.1652 21.438 15.2619 21.4237 15.3425 21.5381C15.4231 21.6525 16.1805 23.4546 16.1805 23.4546C16.1805 23.4546 16.245 23.5833 16.1483 23.6119C16.0516 23.6405 11.4747 25.0707 11.4747 25.0707C11.4747 25.0707 11.4424 25.0993 11.3296 24.8133C11.2168 24.5272 10.4916 22.3533 10.4916 22.3533L10.4754 22.1245Z" fill="white" stroke="white"/>
<path d="M12.2163 26.7585L16.7932 24.8992L17.9053 26.9445C17.9053 26.9445 17.9858 27.1018 17.8408 27.1447C17.6957 27.1876 13.5539 29.3759 13.5539 29.3759L12.2163 26.7585Z" fill="white" stroke="white"/>
<path d="M18.5816 8.63766C18.5816 8.63766 18.0659 8.9094 17.8403 9.13824C17.6147 9.36708 17.3246 9.83905 17.2118 10.0822C17.099 10.3253 16.9539 10.5971 16.9056 10.8259C16.8572 11.0548 16.7444 11.2979 16.7444 11.3694C16.7444 11.4409 16.7122 11.6126 16.8572 11.6126C17.0023 11.6126 17.099 11.5267 17.1957 11.4409C17.2924 11.3551 17.6308 10.9403 17.792 10.7687C17.9531 10.5971 17.9853 10.497 18.356 10.2824C18.7267 10.0679 18.8556 9.98208 18.9362 9.92488C19.0168 9.86767 19.1135 9.78186 19.1135 9.78186C19.1135 9.78186 19.2585 9.4529 19.1779 9.28127C19.0974 9.10965 19.049 8.8808 19.0007 8.78069C18.9523 8.68057 19.0168 8.65196 18.8717 8.62336C18.7267 8.59475 18.5816 8.63766 18.5816 8.63766L18.5816 8.63766Z" fill="white" stroke="white"/>
<path d="M19.0336 11.7128L16.0843 14.0583L16.0037 16.3037C16.0037 16.3037 15.9876 16.4039 16.1165 16.3753C16.2455 16.3466 19.3236 13.9439 19.3236 13.9439C19.3236 13.9439 19.4687 13.8295 19.4203 13.3432C19.372 12.8569 19.2431 11.7556 19.2431 11.7556L19.0336 11.7128Z" fill="white" stroke="white"/>
<path d="M16.0031 18.4202L19.3553 15.8315C19.3553 15.8315 19.6132 15.6742 19.6454 15.9173C19.6776 16.1605 19.7743 17.6765 19.7743 17.6765C19.7743 17.6765 19.726 17.9196 19.5809 18.0054C19.4359 18.0912 16.6478 20.0506 16.6478 20.0506C16.6478 20.0506 16.3578 20.208 16.3094 20.0363C16.2611 19.8647 16.0032 18.4202 16.0032 18.4202L16.0031 18.4202Z" fill="white" stroke="white"/>
<path d="M16.9705 21.667L19.678 19.5646C19.678 19.5646 20.0648 19.3214 20.0809 20.0652C20.097 20.8089 20.1453 21.2809 20.1453 21.2809C20.1453 21.2809 20.1454 21.4239 19.9036 21.5955C19.6619 21.7672 17.7601 23.2832 17.7601 23.2832C17.7601 23.2832 17.4217 23.5836 17.325 23.2546C17.2283 22.9256 16.9543 22.0103 16.9543 22.0103L16.9705 21.667Z" fill="white" stroke="white"/>
<path d="M20.2419 23.5404L20.4031 25.1995L18.9526 26.3294L18.0984 24.8562C18.0984 24.8562 18.0017 24.6273 18.179 24.5701C18.3563 24.5129 20.0484 23.4975 20.0484 23.4975L20.2419 23.5404Z" fill="white" stroke="white"/>
<path d="M20.6926 8.35159C20.6926 8.35159 21.8046 9.0095 22.3364 9.82479C22.8683 10.64 22.9488 10.8689 22.9488 10.8689C22.9488 10.8689 22.9811 10.9976 22.836 10.9976C22.691 10.9976 22.4976 10.7258 22.3042 10.6543C22.1108 10.5828 21.4178 10.0107 21.1277 9.9106C20.8376 9.81049 20.4509 9.68176 20.4509 9.68176L20.3703 9.66746L20.3542 8.43746C20.3542 8.43746 20.4186 8.36595 20.5153 8.36595C20.612 8.36595 20.6926 8.35165 20.6926 8.35165L20.6926 8.35159Z" fill="white" stroke="white"/>
<path d="M20.87 11.584L22.8845 12.528C22.8845 12.528 23.0134 12.528 23.2391 12.5852C23.4647 12.6424 23.4002 12.4279 23.6258 12.7855C23.8515 13.143 23.7548 12.8713 23.9482 13.3003C24.1416 13.7294 24.3188 13.9153 24.3188 14.2729C24.3188 14.6304 24.206 14.7592 24.3511 14.8593C24.4961 14.9594 24.5767 15.0166 24.5122 15.131C24.4478 15.2454 24.4961 15.3027 24.3511 15.317C24.206 15.3313 20.8216 13.7008 20.8216 13.7008C20.8216 13.7008 20.7249 13.8152 20.7249 13.3289C20.7249 12.8427 20.6443 11.913 20.6443 11.913C20.6443 11.913 20.5476 11.584 20.6282 11.584H20.87L20.87 11.584Z" fill="white" stroke="white"/>
<path d="M21.3543 15.5458L24.5614 17.0189C24.5614 17.0189 24.8354 16.9617 24.8515 17.1477C24.8676 17.3336 24.9643 19.2072 24.9643 19.2072C24.9643 19.2072 24.8515 19.5648 24.4808 19.336C24.1102 19.1071 21.2254 17.3909 21.2254 17.3909C21.2254 17.3909 20.9998 17.2621 21.0159 17.0476C21.032 16.8331 20.8709 15.6889 20.8709 15.6889C20.8709 15.6889 20.8064 15.5602 20.9192 15.5029C21.032 15.4457 21.2738 15.4457 21.2738 15.4457L21.3543 15.5458Z" fill="white" stroke="white"/>
<path d="M21.4023 19.3649C21.4023 19.3649 24.2065 20.509 24.5288 20.7522C24.8511 20.9954 24.9801 20.9525 24.9962 21.2814C25.0123 21.6104 24.9962 22.0967 24.9156 22.4828C24.835 22.869 24.9478 22.9977 24.6577 22.9834C24.3676 22.9691 24.1259 22.9405 23.7875 22.7546C23.449 22.5686 21.4667 21.4245 21.4667 21.4245C21.4667 21.4245 21.2088 21.2099 21.2572 21.1384C21.3055 21.0669 21.2572 19.5222 21.2572 19.5222L21.4023 19.3649Z" fill="white" stroke="white"/>
<path d="M22.6106 23.8266L24.0126 24.7991C24.0126 24.7991 24.4316 24.8134 24.3027 25.3855C24.1738 25.9576 24.061 26.5583 24.061 26.5583C24.061 26.5583 24.0288 26.9016 23.4969 26.544C22.9651 26.1864 21.7725 25.3569 21.7725 25.3569C21.7725 25.3569 21.4502 25.2425 21.4824 24.9707C21.5147 24.699 21.4663 23.6835 21.4663 23.6835C21.4663 23.6835 21.4019 23.0685 21.8853 23.3831C22.3688 23.6978 22.6106 23.8265 22.6106 23.8265L22.6106 23.8266Z" fill="white" stroke="white"/>
<path d="M24.8342 10.497L27.7996 9.10967C27.7996 9.10967 28.0252 8.86654 28.2186 9.05247C28.412 9.23839 29.0888 10.9403 29.0888 10.9403C29.0888 10.9403 29.4273 11.4695 28.976 11.5839C28.5248 11.6984 26.4136 12.5565 26.4136 12.5565C26.4136 12.5565 26.1557 12.5136 25.9624 12.6852C25.769 12.8569 25.3661 13.2573 25.221 12.7853C25.076 12.3134 24.6408 11.1549 24.5119 11.1263C24.383 11.0977 24.2863 10.7115 24.3669 10.6829C24.4474 10.6543 24.8342 10.497 24.8342 10.497L24.8342 10.497Z" fill="white" stroke="white"/>
<path d="M26.2368 14.316C26.2368 14.316 26.817 13.9441 27.4294 13.8297C28.0418 13.7153 28.0257 13.6294 28.348 13.6581C28.6703 13.6867 28.622 13.7439 28.7992 13.6437C28.9765 13.5436 28.7992 13.4578 29.0732 13.4006C29.3472 13.3434 29.4922 13.3148 29.7017 13.3148C29.9112 13.3148 30.1369 13.3005 30.1852 13.5722C30.2336 13.844 30.4431 14.6163 30.4753 14.9882C30.5076 15.3601 30.6042 15.4888 30.5559 15.6461C30.5076 15.8034 30.2175 15.9751 30.008 15.9751C29.7984 15.9751 28.9927 16.1181 28.7348 16.161C28.4769 16.2039 27.929 16.3326 27.7195 16.3469C27.51 16.3612 27.3972 16.3326 27.1393 16.3898C26.8814 16.447 26.8009 16.3755 26.7203 16.49C26.6397 16.6044 26.5752 16.7474 26.3657 16.7331C26.1562 16.7188 26.0595 16.6902 26.0273 16.5758C25.9951 16.4613 25.9628 16.2039 25.9306 15.8463C25.8984 15.4888 25.9306 15.4173 25.9145 15.1884C25.8984 14.9596 25.8017 14.8023 25.7694 14.7594C25.7372 14.7165 25.7533 14.5591 25.8661 14.4733C25.9789 14.3875 26.2368 14.316 26.2368 14.316L26.2368 14.316Z" fill="white" stroke="white"/>
<path d="M26.7199 18.0053C26.7199 18.0053 27.4612 17.8051 27.7674 17.7908C28.0736 17.7765 28.1542 17.6621 28.4604 17.6335C28.7666 17.6049 28.8472 17.5763 29.0728 17.6049C29.2984 17.6335 29.2178 17.6478 29.4274 17.6192C29.6369 17.5906 29.9108 17.4189 30.1042 17.3903C30.2976 17.3617 30.3621 17.2902 30.5877 17.4189C30.8133 17.5477 30.8294 17.6764 30.8456 17.7622C30.8617 17.848 30.9906 19.5357 30.9906 19.5357C30.9906 19.5357 30.8939 19.9648 30.6683 19.9934C30.4427 20.022 27.5902 20.0935 27.5902 20.0935C27.5902 20.0935 27.3484 19.9362 27.1712 20.022C26.9939 20.1078 26.865 20.1078 26.7521 20.1078C26.6393 20.1078 26.6071 20.0935 26.6071 20.0935C26.6071 20.0935 26.5265 20.1078 26.462 20.0649C26.3976 20.022 26.2364 20.1364 26.2364 19.7931V18.3343C26.2364 18.3343 26.1397 18.1627 26.3653 18.1055C26.591 18.0483 26.7199 18.0054 26.7199 18.0054L26.7199 18.0053Z" fill="white" stroke="white"/>
<path d="M26.4466 21.4957C26.4466 21.4957 28.6383 21.4242 28.9607 21.4528C29.283 21.4814 29.5086 21.4814 29.6053 21.4814C29.702 21.4814 29.6859 21.5673 29.8632 21.5816C30.0405 21.5959 30.1049 21.553 30.1855 21.51C30.2661 21.4671 30.6368 21.3956 30.7657 21.4814C30.8946 21.5673 31.0719 21.5243 31.0558 21.8533C31.0397 22.1823 30.8946 22.6256 30.8301 23.069C30.7657 23.5124 30.5239 23.8271 30.5239 23.9415C30.5239 24.0559 30.5562 24.1703 30.5562 24.1703C30.5562 24.1703 30.3144 24.2132 30.121 24.2275C29.9276 24.2418 29.2185 24.0559 29.1057 24.0416C28.9929 24.0273 28.7189 23.9701 28.3966 23.9272C28.0743 23.8843 28.2516 23.8843 27.8165 23.8557C27.3813 23.8271 27.2363 23.8128 26.9945 23.8128C26.7528 23.8128 26.5916 23.8843 26.3983 23.7556C26.2049 23.6269 26.2049 23.6984 26.1243 23.5839C26.0437 23.4695 26.0598 23.5553 26.0276 23.3122C25.9954 23.0691 25.9792 22.6972 26.0115 22.5971C26.0437 22.497 26.0115 21.8248 26.0598 21.7532C26.1082 21.6817 26.0759 21.553 26.1887 21.5244C26.3016 21.4958 26.4466 21.4958 26.4466 21.4958L26.4466 21.4957Z" fill="white" stroke="white"/>
<path d="M25.9311 25.3574C25.9311 25.3574 28.3969 25.7579 28.8803 25.9867C29.3638 26.2156 29.4122 26.1584 29.7023 26.2442C29.9924 26.33 30.218 26.2156 30.1857 26.6446C30.1535 27.0737 29.8795 28.3181 29.8795 28.3181L29.67 29.2048C29.67 29.2048 29.4766 29.6625 29.0415 29.4766C28.6064 29.2906 25.2865 27.6602 25.2865 27.6602C25.2865 27.6602 24.8836 27.6888 24.948 27.4027C25.0125 27.1167 25.1414 26.6018 25.1737 26.5303C25.2059 26.4588 25.4154 25.8724 25.4476 25.7722C25.4799 25.6721 25.3348 25.286 25.5121 25.286C25.6894 25.286 25.9311 25.3575 25.9311 25.3575L25.9311 25.3574Z" fill="white" stroke="white"/>
<path d="M22.5458 44.8085L25.7852 46.4819C25.7852 46.4819 26.1075 46.6393 25.9141 46.7966C25.7207 46.9539 25.2695 47.526 25.0922 47.6404C24.9149 47.7548 22.9165 49.085 22.1107 49.1421C21.3049 49.1993 19.2259 49.2709 18.4362 49.1564C17.6465 49.042 15.6803 48.57 15.0196 48.0265C14.3588 47.483 12.8761 46.5248 12.7311 46.2244C12.586 45.924 12.4249 45.5379 12.4249 45.5379C12.4249 45.5379 12.2959 45.3234 12.4732 45.2518C12.6505 45.1803 12.7955 45.1231 13.1501 45.0516C13.5046 44.9801 16.3249 44.122 16.3249 44.122C16.3249 44.122 16.615 43.9932 16.9696 44.122C17.3241 44.2507 17.2436 44.2793 17.4047 44.4938C17.5659 44.7084 17.5981 44.9229 18.0816 45.0373C18.5651 45.1517 18.694 45.2661 19.2419 45.2804C19.7899 45.2947 20.08 45.3377 20.4668 45.2518C20.8536 45.166 21.1115 45.1231 21.3532 44.9372C21.5949 44.7513 21.7722 44.551 21.9173 44.5367C22.0623 44.5224 22.1751 44.5224 22.3363 44.5939C22.4974 44.6654 22.6264 44.8228 22.6264 44.8228C22.6264 44.8228 22.4491 44.7942 22.5458 44.8085L22.5458 44.8085Z" fill="white" stroke="white"/>
<path d="M24.0779 36.0266L28.1068 36.4271C28.1068 36.4271 28.4291 36.4128 28.4291 36.6416C28.4291 36.8704 28.1552 39.0157 28.1552 39.0157C28.1552 39.0157 28.1068 39.2732 27.7845 39.2017C27.4622 39.1302 23.8361 38.5867 23.8361 38.5867C23.8361 38.5867 23.5138 38.5581 23.5138 38.3435C23.5138 38.129 23.7233 36.2125 23.7233 36.2125C23.7233 36.2125 23.691 35.9693 23.8522 35.9693C24.0133 35.9693 24.0778 36.0265 24.0778 36.0265L24.0779 36.0266Z" fill="white" stroke="white"/>
<path d="M23.8681 39.7596C23.8681 39.7596 27.0107 40.3746 27.2685 40.3889C27.5264 40.4032 27.7842 40.4175 27.8648 40.4604C27.9454 40.5033 28.1065 40.4318 28.0743 40.7178C28.0421 41.0039 27.9132 41.5617 27.8648 41.7333C27.8165 41.9049 27.7037 42.0623 27.5908 42.1338C27.478 42.2053 27.1396 42.2196 26.8334 42.1624C26.5272 42.1052 24.6899 41.6332 24.2065 41.5331C23.723 41.433 23.1912 41.3901 23.1589 41.247C23.1267 41.104 23.0622 40.8895 23.1106 40.5748C23.1589 40.2602 23.1428 40.0027 23.1912 39.8883C23.2395 39.7739 23.2879 39.588 23.4813 39.6166C23.6747 39.6452 23.868 39.7596 23.868 39.7596L23.8681 39.7596Z" fill="white" stroke="white"/>
<path d="M23.2231 42.5202L27.236 43.55C27.236 43.55 27.5261 43.693 27.4294 43.9647C27.3327 44.2365 27.0426 45.1375 26.7848 45.3521C26.5269 45.5666 26.5753 45.681 26.4302 45.5952C26.2852 45.5094 25.6083 45.1662 25.1087 44.8515C24.6091 44.5369 23.6422 43.9362 23.3521 43.9075C23.062 43.8789 22.7397 43.7216 22.7075 43.6215C22.6752 43.5214 22.5947 43.4785 22.6914 43.1495C22.788 42.8206 22.6591 42.6633 22.8525 42.5917C23.0459 42.5202 23.2232 42.5202 23.2232 42.5202L23.2231 42.5202Z" fill="white" stroke="white"/>
<path d="M12.0389 41.7479L16.0841 41.7622C16.0841 41.7622 16.2291 41.6478 16.3419 41.7193C16.4547 41.7908 16.487 41.8051 16.5192 41.9624C16.5514 42.1197 16.5676 42.5917 16.5676 42.6775C16.5676 42.7633 16.6804 42.9207 16.3903 42.9636C16.1002 43.0065 11.9905 43.9504 11.9905 43.9504C11.9905 43.9504 11.8938 44.0505 11.8938 43.6787C11.8938 43.3068 11.8616 43.1209 11.8616 42.8348C11.8616 42.5488 11.8455 42.1912 11.8938 42.0768C11.9422 41.9624 11.9583 41.7765 12.0389 41.7479L12.0389 41.7479Z" fill="white" stroke="white"/>
<path d="M12.6838 38.6011C12.6838 38.6011 13.9731 38.6154 14.5855 38.7012C15.1979 38.787 15.4235 38.8871 15.6975 38.9014C15.9715 38.9157 16.5194 38.9586 16.5194 38.9586C16.5194 38.9586 16.8256 38.9872 16.8417 39.1875C16.8579 39.3877 16.8256 39.6309 16.8256 39.9026C16.8256 40.1743 16.6 40.4175 16.6 40.4175C16.6 40.4175 16.3099 40.5891 15.7781 40.5605C15.2463 40.5319 15.1818 40.5319 14.6016 40.5033C14.0214 40.4747 13.409 40.4747 13.2479 40.4747H12.4421H12.1197C12.1197 40.4747 11.8135 40.5319 11.9264 40.0885C12.0392 39.6452 12.0231 39.4163 12.0875 39.2161C12.152 39.0158 12.1036 38.8585 12.2326 38.7584C12.3615 38.6583 12.6838 38.6011 12.6838 38.6011H12.6838Z" fill="white" stroke="white"/>
<path d="M13.6992 34.5819C13.6992 34.5819 14.9562 34.8251 15.2947 34.8251C15.6332 34.8251 15.5364 34.7106 15.8265 34.7965C16.1166 34.8823 16.31 34.868 16.5195 34.9395C16.729 35.011 16.8418 35.0825 17.0352 35.0825C17.2286 35.0825 17.3414 35.154 17.3253 35.5545C17.3092 35.9549 17.1964 36.1266 17.1964 36.4984C17.1964 36.8703 17.0353 37.5711 17.0353 37.5711L12.555 37.3709C12.555 37.3709 12.4099 37.1706 12.6194 36.8274C12.8289 36.4841 12.8612 36.2267 12.9095 35.9835C12.9579 35.7404 13.0223 35.5688 13.1352 35.44C13.248 35.3113 13.3447 35.0968 13.3769 34.9967C13.4091 34.8966 13.4575 34.5676 13.4575 34.5676L13.6992 34.5819Z" fill="white" stroke="white"/>
<path d="M18.6787 36.5128L19.5651 37.3137C19.5651 37.3137 19.6457 37.3566 19.6135 37.6856C19.5812 38.0145 19.4523 38.558 19.4523 38.558C19.4523 38.558 19.5651 38.7582 19.3878 38.7439C19.2105 38.7296 18.7915 38.6009 18.7109 38.5008C18.6304 38.4007 18.3403 38.2576 18.308 38.2004C18.2758 38.1432 18.1791 38.0002 18.163 37.943C18.1469 37.8858 18.0341 37.5282 18.0824 37.3137C18.1308 37.0992 18.1308 36.8131 18.2597 36.6844C18.3886 36.5557 18.5498 36.4985 18.5498 36.4985L18.6787 36.5128Z" fill="white" stroke="white"/>
<path d="M18.3563 39.617L19.0331 40.2892C19.0331 40.2892 19.1298 40.3178 19.1298 40.6611C19.1298 41.0044 19.146 41.2332 19.0009 41.2332C18.8559 41.2332 18.5013 41.1331 18.3724 41.0187C18.2435 40.9043 17.9534 40.8184 17.8728 40.6754C17.7922 40.5324 17.6794 40.3894 17.7439 40.1462C17.8083 39.9031 17.9211 39.6885 18.0178 39.6456C18.1145 39.6027 18.3563 39.617 18.3563 39.617L18.3563 39.617Z" fill="white" stroke="white"/>
<path d="M17.9691 42.2915C17.9691 42.2915 18.2753 42.4774 18.4364 42.6061C18.5976 42.7349 18.6782 42.7492 18.6943 43.0638C18.7104 43.3785 18.7588 43.6931 18.6943 43.8361C18.6298 43.9792 18.6621 44.0364 18.517 44.0364C18.372 44.0364 18.3075 43.9506 18.2431 43.8647C18.1786 43.7789 18.0658 43.6931 18.0013 43.5787C17.9368 43.4643 17.7596 43.264 17.7273 43.121C17.6951 42.978 17.5984 42.7921 17.5984 42.7063C17.5984 42.6205 17.5984 42.506 17.6629 42.4202C17.7273 42.3344 17.8724 42.2629 17.8724 42.2629L17.9691 42.2915Z" fill="white" stroke="white"/>
<path d="M20.9671 37.5426C20.9671 37.5426 21.225 37.3566 21.3861 37.3566C21.5473 37.3566 21.7729 37.3423 21.8696 37.2279C21.9663 37.1135 22.2564 36.9848 22.3047 36.9848C22.3531 36.9848 22.4014 36.9991 22.4014 37.185C22.4014 37.3709 22.3853 37.6141 22.3531 37.8C22.3209 37.9859 22.3047 38.2148 22.3047 38.3292C22.3047 38.4436 22.5787 38.3721 22.2403 38.5294C21.9018 38.6868 21.3861 38.9156 21.3861 38.9156L21.096 38.9013C21.096 38.9013 20.9349 38.8298 20.9188 38.7154C20.9026 38.6009 20.8865 38.4579 20.9026 38.2863C20.9188 38.1147 20.9671 37.9287 20.9671 37.8715V37.5426L20.9671 37.5426Z" fill="white" stroke="white"/>
<path d="M20.6447 40.5606C20.6447 40.5606 21.3054 40.2603 21.5794 40.2174C21.8534 40.1745 21.9017 40.2031 21.8856 40.4176C21.8695 40.6322 21.8695 40.8324 21.8695 40.8324C21.8695 40.8324 21.9178 41.004 21.7889 41.0612C21.66 41.1184 21.4182 41.2758 21.241 41.3044C21.0637 41.333 20.7252 41.476 20.6124 41.3902C20.4996 41.3044 20.4996 41.0612 20.5318 40.9611C20.5641 40.861 20.6447 40.5606 20.6447 40.5606L20.6447 40.5606Z" fill="white" stroke="white"/>
<path d="M20.4996 43.0351L21.1765 42.5631C21.1765 42.5631 21.4505 42.4487 21.4827 42.5917C21.5149 42.7348 21.3054 43.078 21.3054 43.078C21.3054 43.078 21.1443 43.8503 20.9992 43.9791C20.8542 44.1078 20.6608 44.2651 20.5157 44.2937C20.3707 44.3223 20.2579 44.3795 20.2579 44.0935C20.2579 43.8074 20.3385 43.2639 20.3385 43.2639L20.4996 43.0351Z" fill="white" stroke="white"/>
</svg>
