<svg width="68" height="59" viewBox="0 0 68 59" fill="none" xmlns="http://www.w3.org/2000/svg">
<path d="M35.305 44.605L31.495 40.84L31.54 40.795C34.15 37.885 36.01 34.54 37.105 31H41.5V28H31V25H28V28H17.5V30.985H34.255C33.25 33.88 31.66 36.625 29.5 39.025C28.105 37.48 26.95 35.785 26.035 34H23.035C24.13 36.445 25.63 38.755 27.505 40.84L19.87 48.37L22 50.5L29.5 43L34.165 47.665L35.305 44.605ZM43.75 37H40.75L34 55H37L38.68 50.5H45.805L47.5 55H50.5L43.75 37ZM39.82 47.5L42.25 41.005L44.68 47.5H39.82Z" fill="white"/>
</svg>
