<svg width="688" height="474" viewBox="0 0 688 474" fill="none" xmlns="http://www.w3.org/2000/svg">
<rect x="0.5" y="0.5" width="687" height="473" rx="3.5" fill="#212936" stroke="#313C4E"/>
<path d="M46.82 54.415L37.66 46L46.82 37.585L44 35L32 46L44 57L46.82 54.415Z" fill="#8997B1"/>
<path d="M272.92 50H269.955L262.35 37.8945V50H259.385V32.9375H262.35L269.979 45.0898V32.9375H272.92V50ZM275.716 43.543C275.716 42.3008 275.962 41.1836 276.454 40.1914C276.946 39.1914 277.638 38.4258 278.528 37.8945C279.419 37.3555 280.442 37.0859 281.598 37.0859C283.309 37.0859 284.696 37.6367 285.759 38.7383C286.829 39.8398 287.407 41.3008 287.493 43.1211L287.505 43.7891C287.505 45.0391 287.263 46.1562 286.778 47.1406C286.302 48.125 285.614 48.8867 284.716 49.4258C283.825 49.9648 282.794 50.2344 281.622 50.2344C279.833 50.2344 278.399 49.6406 277.321 48.4531C276.251 47.2578 275.716 45.668 275.716 43.6836V43.543ZM278.563 43.7891C278.563 45.0938 278.833 46.1172 279.372 46.8594C279.911 47.5938 280.661 47.9609 281.622 47.9609C282.583 47.9609 283.329 47.5859 283.86 46.8359C284.399 46.0859 284.669 44.9883 284.669 43.543C284.669 42.2617 284.391 41.2461 283.837 40.4961C283.29 39.7461 282.544 39.3711 281.598 39.3711C280.669 39.3711 279.93 39.7422 279.384 40.4844C278.837 41.2188 278.563 42.3203 278.563 43.7891ZM294.296 46.3906L296.98 37.3203H299.921L295.527 50H293.054L288.624 37.3203H291.577L294.296 46.3906ZM307.228 50.2344C305.423 50.2344 303.959 49.668 302.834 48.5352C301.716 47.3945 301.158 45.8789 301.158 43.9883V43.6367C301.158 42.3711 301.4 41.2422 301.884 40.25C302.377 39.25 303.064 38.4727 303.947 37.918C304.83 37.3633 305.814 37.0859 306.9 37.0859C308.627 37.0859 309.959 37.6367 310.896 38.7383C311.841 39.8398 312.314 41.3984 312.314 43.4141V44.5625H304.029C304.115 45.6094 304.463 46.4375 305.072 47.0469C305.689 47.6562 306.463 47.9609 307.392 47.9609C308.697 47.9609 309.759 47.4336 310.58 46.3789L312.115 47.8438C311.607 48.6016 310.927 49.1914 310.076 49.6133C309.232 50.0273 308.283 50.2344 307.228 50.2344ZM306.888 39.3711C306.107 39.3711 305.474 39.6445 304.99 40.1914C304.513 40.7383 304.209 41.5 304.076 42.4766H309.502V42.2656C309.439 41.3125 309.185 40.5938 308.74 40.1094C308.295 39.6172 307.677 39.3711 306.888 39.3711ZM317.312 37.3203L317.395 38.6445C318.285 37.6055 319.504 37.0859 321.051 37.0859C322.746 37.0859 323.906 37.7344 324.531 39.0312C325.453 37.7344 326.75 37.0859 328.422 37.0859C329.82 37.0859 330.859 37.4727 331.539 38.2461C332.227 39.0195 332.578 40.1602 332.594 41.668V50H329.746V41.75C329.746 40.9453 329.57 40.3555 329.219 39.9805C328.867 39.6055 328.285 39.418 327.473 39.418C326.824 39.418 326.293 39.5938 325.879 39.9453C325.473 40.2891 325.188 40.7422 325.023 41.3047L325.035 50H322.188V41.6562C322.148 40.1641 321.387 39.418 319.902 39.418C318.762 39.418 317.953 39.8828 317.477 40.8125V50H314.629V37.3203H317.312ZM346.745 43.7891C346.745 45.7578 346.303 47.3242 345.42 48.4883C344.545 49.6523 343.338 50.2344 341.799 50.2344C340.315 50.2344 339.159 49.6992 338.33 48.6289L338.19 50H335.612V32H338.459V38.5391C339.28 37.5703 340.385 37.0859 341.776 37.0859C343.323 37.0859 344.538 37.6602 345.42 38.8086C346.303 39.957 346.745 41.5625 346.745 43.625V43.7891ZM343.897 43.543C343.897 42.168 343.655 41.1367 343.17 40.4492C342.686 39.7617 341.983 39.418 341.061 39.418C339.827 39.418 338.959 39.957 338.459 41.0352V46.2617C338.967 47.3633 339.842 47.9141 341.084 47.9141C341.975 47.9141 342.663 47.582 343.147 46.918C343.631 46.2539 343.881 45.25 343.897 43.9062V43.543ZM354.825 50.2344C353.02 50.2344 351.555 49.668 350.43 48.5352C349.313 47.3945 348.755 45.8789 348.755 43.9883V43.6367C348.755 42.3711 348.997 41.2422 349.481 40.25C349.973 39.25 350.661 38.4727 351.544 37.918C352.427 37.3633 353.411 37.0859 354.497 37.0859C356.223 37.0859 357.555 37.6367 358.493 38.7383C359.438 39.8398 359.911 41.3984 359.911 43.4141V44.5625H351.626C351.712 45.6094 352.059 46.4375 352.669 47.0469C353.286 47.6562 354.059 47.9609 354.989 47.9609C356.294 47.9609 357.356 47.4336 358.177 46.3789L359.712 47.8438C359.204 48.6016 358.524 49.1914 357.673 49.6133C356.829 50.0273 355.88 50.2344 354.825 50.2344ZM354.485 39.3711C353.704 39.3711 353.071 39.6445 352.587 40.1914C352.11 40.7383 351.805 41.5 351.673 42.4766H357.098V42.2656C357.036 41.3125 356.782 40.5938 356.337 40.1094C355.891 39.6172 355.274 39.3711 354.485 39.3711ZM368.87 39.9219C368.495 39.8594 368.109 39.8281 367.71 39.8281C366.405 39.8281 365.527 40.3281 365.073 41.3281V50H362.226V37.3203H364.945L365.015 38.7383C365.702 37.6367 366.655 37.0859 367.874 37.0859C368.28 37.0859 368.616 37.1406 368.882 37.25L368.87 39.9219ZM388.137 50H376.664V48.043L382.348 41.8438C383.168 40.9297 383.75 40.168 384.094 39.5586C384.445 38.9414 384.621 38.3242 384.621 37.707C384.621 36.8945 384.391 36.2383 383.93 35.7383C383.477 35.2383 382.863 34.9883 382.09 34.9883C381.168 34.9883 380.453 35.2695 379.945 35.832C379.438 36.3945 379.184 37.1641 379.184 38.1406H376.336C376.336 37.1016 376.57 36.168 377.039 35.3398C377.516 34.5039 378.191 33.8555 379.066 33.3945C379.949 32.9336 380.965 32.7031 382.113 32.7031C383.77 32.7031 385.074 33.1211 386.027 33.957C386.988 34.7852 387.469 35.9336 387.469 37.4023C387.469 38.2539 387.227 39.1484 386.742 40.0859C386.266 41.0156 385.48 42.0742 384.387 43.2617L380.215 47.7266H388.137V50ZM401.526 42.8164C401.526 45.2695 401.065 47.1211 400.143 48.3711C399.229 49.6133 397.834 50.2344 395.959 50.2344C394.116 50.2344 392.725 49.6289 391.788 48.418C390.858 47.1992 390.381 45.3984 390.358 43.0156V40.0625C390.358 37.6094 390.815 35.7695 391.729 34.543C392.651 33.3164 394.053 32.7031 395.936 32.7031C397.803 32.7031 399.194 33.3008 400.108 34.4961C401.03 35.6914 401.502 37.4805 401.526 39.8633V42.8164ZM398.678 39.6289C398.678 38.0273 398.459 36.8555 398.022 36.1133C397.584 35.3633 396.889 34.9883 395.936 34.9883C395.006 34.9883 394.323 35.3438 393.885 36.0547C393.448 36.7578 393.217 37.8594 393.194 39.3594V43.2266C393.194 44.8203 393.416 46.0078 393.862 46.7891C394.307 47.5703 395.006 47.9609 395.959 47.9609C396.873 47.9609 397.549 47.6016 397.987 46.8828C398.424 46.1562 398.655 45.0234 398.678 43.4844V39.6289ZM415.618 50H404.145V48.043L409.829 41.8438C410.649 40.9297 411.231 40.168 411.575 39.5586C411.927 38.9414 412.102 38.3242 412.102 37.707C412.102 36.8945 411.872 36.2383 411.411 35.7383C410.958 35.2383 410.345 34.9883 409.571 34.9883C408.649 34.9883 407.934 35.2695 407.427 35.832C406.919 36.3945 406.665 37.1641 406.665 38.1406H403.817C403.817 37.1016 404.052 36.168 404.52 35.3398C404.997 34.5039 405.673 33.8555 406.548 33.3945C407.43 32.9336 408.446 32.7031 409.595 32.7031C411.251 32.7031 412.555 33.1211 413.509 33.957C414.47 34.7852 414.95 35.9336 414.95 37.4023C414.95 38.2539 414.708 39.1484 414.223 40.0859C413.747 41.0156 412.962 42.0742 411.868 43.2617L407.696 47.7266H415.618V50ZM425.597 50H422.761V36.3008L418.577 37.7305V35.3281L425.234 32.8789H425.597V50Z" fill="#AFBDD1"/>
<path d="M662.317 47.5025L669.95 41L662.317 34.4975L664.667 32.5L674.667 41L664.667 49.5L662.317 47.5025Z" fill="#8997B1"/>
<g clip-path="url(#clip0_40_44)">
<path d="M57.1148 129.197C56.15 128.92 55.4469 128.58 55.0055 128.178C54.568 127.771 54.3492 127.271 54.3492 126.678C54.3492 126.006 54.6168 125.451 55.152 125.014C55.691 124.572 56.3902 124.352 57.2496 124.352C57.8355 124.352 58.357 124.465 58.8141 124.691C59.275 124.918 59.6305 125.23 59.8805 125.629C60.1344 126.027 60.2613 126.463 60.2613 126.936H59.1305C59.1305 126.42 58.9664 126.016 58.6383 125.723C58.3102 125.426 57.8473 125.277 57.2496 125.277C56.6949 125.277 56.2613 125.4 55.9488 125.646C55.6402 125.889 55.4859 126.227 55.4859 126.66C55.4859 127.008 55.6324 127.303 55.9254 127.545C56.2223 127.783 56.7242 128.002 57.4312 128.201C58.1422 128.4 58.6969 128.621 59.0953 128.863C59.4977 129.102 59.7945 129.381 59.9859 129.701C60.1812 130.021 60.2789 130.398 60.2789 130.832C60.2789 131.523 60.0094 132.078 59.4703 132.496C58.9312 132.91 58.2105 133.117 57.3082 133.117C56.7223 133.117 56.1754 133.006 55.6676 132.783C55.1598 132.557 54.7672 132.248 54.4898 131.857C54.2164 131.467 54.0797 131.023 54.0797 130.527H55.2105C55.2105 131.043 55.4 131.451 55.7789 131.752C56.1617 132.049 56.6715 132.197 57.3082 132.197C57.902 132.197 58.357 132.076 58.6734 131.834C58.9898 131.592 59.148 131.262 59.148 130.844C59.148 130.426 59.0016 130.104 58.7086 129.877C58.4156 129.646 57.8844 129.42 57.1148 129.197ZM65.8703 133C65.8078 132.875 65.757 132.652 65.718 132.332C65.2141 132.855 64.6125 133.117 63.9133 133.117C63.2883 133.117 62.7746 132.941 62.3723 132.59C61.9738 132.234 61.7746 131.785 61.7746 131.242C61.7746 130.582 62.0246 130.07 62.5246 129.707C63.0285 129.34 63.7355 129.156 64.6457 129.156H65.7004V128.658C65.7004 128.279 65.5871 127.979 65.3605 127.756C65.134 127.529 64.8 127.416 64.3586 127.416C63.9719 127.416 63.6477 127.514 63.3859 127.709C63.1242 127.904 62.9934 128.141 62.9934 128.418H61.9035C61.9035 128.102 62.0148 127.797 62.2375 127.504C62.4641 127.207 62.7687 126.973 63.1516 126.801C63.5383 126.629 63.9621 126.543 64.423 126.543C65.1535 126.543 65.7258 126.727 66.1398 127.094C66.5539 127.457 66.7687 127.959 66.7844 128.6V131.518C66.7844 132.1 66.8586 132.562 67.007 132.906V133H65.8703ZM64.0715 132.174C64.4113 132.174 64.7336 132.086 65.0383 131.91C65.343 131.734 65.5637 131.506 65.7004 131.225V129.924H64.8508C63.5227 129.924 62.8586 130.312 62.8586 131.09C62.8586 131.43 62.9719 131.695 63.1984 131.887C63.425 132.078 63.716 132.174 64.0715 132.174ZM70.3543 125.125V126.66H71.5379V127.498H70.3543V131.43C70.3543 131.684 70.407 131.875 70.5125 132.004C70.618 132.129 70.7977 132.191 71.0516 132.191C71.1766 132.191 71.3484 132.168 71.5672 132.121V133C71.282 133.078 71.0047 133.117 70.7352 133.117C70.2508 133.117 69.8855 132.971 69.6395 132.678C69.3934 132.385 69.2703 131.969 69.2703 131.43V127.498H68.116V126.66H69.2703V125.125H70.3543Z" fill="#313C4E"/>
<path d="M149.72 129.197C148.755 128.92 148.052 128.58 147.611 128.178C147.173 127.771 146.955 127.271 146.955 126.678C146.955 126.006 147.222 125.451 147.757 125.014C148.296 124.572 148.996 124.352 149.855 124.352C150.441 124.352 150.962 124.465 151.42 124.691C151.88 124.918 152.236 125.23 152.486 125.629C152.74 126.027 152.867 126.463 152.867 126.936H151.736C151.736 126.42 151.572 126.016 151.244 125.723C150.916 125.426 150.453 125.277 149.855 125.277C149.3 125.277 148.867 125.4 148.554 125.646C148.246 125.889 148.091 126.227 148.091 126.66C148.091 127.008 148.238 127.303 148.531 127.545C148.828 127.783 149.33 128.002 150.037 128.201C150.748 128.4 151.302 128.621 151.701 128.863C152.103 129.102 152.4 129.381 152.591 129.701C152.787 130.021 152.884 130.398 152.884 130.832C152.884 131.523 152.615 132.078 152.076 132.496C151.537 132.91 150.816 133.117 149.914 133.117C149.328 133.117 148.781 133.006 148.273 132.783C147.765 132.557 147.373 132.248 147.095 131.857C146.822 131.467 146.685 131.023 146.685 130.527H147.816C147.816 131.043 148.005 131.451 148.384 131.752C148.767 132.049 149.277 132.197 149.914 132.197C150.507 132.197 150.962 132.076 151.279 131.834C151.595 131.592 151.754 131.262 151.754 130.844C151.754 130.426 151.607 130.104 151.314 129.877C151.021 129.646 150.49 129.42 149.72 129.197ZM158.476 132.373C158.054 132.869 157.435 133.117 156.618 133.117C155.943 133.117 155.427 132.922 155.071 132.531C154.72 132.137 154.542 131.555 154.538 130.785V126.66H155.622V130.756C155.622 131.717 156.013 132.197 156.794 132.197C157.622 132.197 158.173 131.889 158.446 131.271V126.66H159.53V133H158.499L158.476 132.373ZM162.608 126.66L162.643 127.457C163.128 126.848 163.761 126.543 164.542 126.543C165.882 126.543 166.557 127.299 166.569 128.811V133H165.485V128.805C165.481 128.348 165.376 128.01 165.169 127.791C164.966 127.572 164.647 127.463 164.214 127.463C163.862 127.463 163.554 127.557 163.288 127.744C163.022 127.932 162.815 128.178 162.667 128.482V133H161.583V126.66H162.608Z" fill="#313C4E"/>
<path d="M239.873 124.469L242.662 131.43L245.451 124.469H246.91V133H245.785V129.678L245.89 126.092L243.089 133H242.228L239.433 126.109L239.545 129.678V133H238.42V124.469H239.873ZM248.839 129.771C248.839 129.15 248.96 128.592 249.202 128.096C249.448 127.6 249.788 127.217 250.222 126.947C250.659 126.678 251.157 126.543 251.716 126.543C252.579 126.543 253.277 126.842 253.808 127.439C254.343 128.037 254.611 128.832 254.611 129.824V129.9C254.611 130.518 254.491 131.072 254.253 131.564C254.019 132.053 253.681 132.434 253.239 132.707C252.802 132.98 252.298 133.117 251.728 133.117C250.868 133.117 250.171 132.818 249.636 132.221C249.105 131.623 248.839 130.832 248.839 129.848V129.771ZM249.929 129.9C249.929 130.604 250.091 131.168 250.415 131.594C250.743 132.02 251.181 132.232 251.728 132.232C252.279 132.232 252.716 132.018 253.04 131.588C253.364 131.154 253.527 130.549 253.527 129.771C253.527 129.076 253.361 128.514 253.029 128.084C252.7 127.65 252.263 127.434 251.716 127.434C251.181 127.434 250.749 127.646 250.421 128.072C250.093 128.498 249.929 129.107 249.929 129.9ZM257.395 126.66L257.43 127.457C257.915 126.848 258.548 126.543 259.329 126.543C260.669 126.543 261.345 127.299 261.356 128.811V133H260.272V128.805C260.268 128.348 260.163 128.01 259.956 127.791C259.753 127.572 259.434 127.463 259.001 127.463C258.649 127.463 258.341 127.557 258.075 127.744C257.809 127.932 257.602 128.178 257.454 128.482V133H256.37V126.66H257.395Z" fill="#313C4E"/>
<path d="M340.494 125.395H337.752V133H336.632V125.395H333.896V124.469H340.494V125.395ZM345.341 132.373C344.919 132.869 344.3 133.117 343.484 133.117C342.808 133.117 342.292 132.922 341.937 132.531C341.585 132.137 341.407 131.555 341.404 130.785V126.66H342.487V130.756C342.487 131.717 342.878 132.197 343.659 132.197C344.487 132.197 345.038 131.889 345.312 131.271V126.66H346.396V133H345.364L345.341 132.373ZM351.079 133.117C350.22 133.117 349.52 132.836 348.981 132.273C348.442 131.707 348.173 130.951 348.173 130.006V129.807C348.173 129.178 348.292 128.617 348.53 128.125C348.772 127.629 349.108 127.242 349.538 126.965C349.971 126.684 350.44 126.543 350.944 126.543C351.768 126.543 352.409 126.814 352.866 127.357C353.323 127.9 353.552 128.678 353.552 129.689V130.141H349.257C349.272 130.766 349.454 131.271 349.802 131.658C350.153 132.041 350.598 132.232 351.138 132.232C351.52 132.232 351.845 132.154 352.11 131.998C352.376 131.842 352.608 131.635 352.807 131.377L353.47 131.893C352.938 132.709 352.141 133.117 351.079 133.117ZM350.944 127.434C350.507 127.434 350.139 127.594 349.843 127.914C349.546 128.23 349.362 128.676 349.292 129.25H352.468V129.168C352.436 128.617 352.288 128.191 352.022 127.891C351.757 127.586 351.397 127.434 350.944 127.434Z" fill="#313C4E"/>
<path d="M428.447 130.311L428.611 131.436L428.851 130.422L430.539 124.469H431.488L433.134 130.422L433.369 131.453L433.55 130.305L434.875 124.469H436.005L433.937 133H432.912L431.154 126.783L431.019 126.133L430.884 126.783L429.062 133H428.037L425.974 124.469H427.099L428.447 130.311ZM439.933 133.117C439.073 133.117 438.374 132.836 437.835 132.273C437.296 131.707 437.027 130.951 437.027 130.006V129.807C437.027 129.178 437.146 128.617 437.384 128.125C437.626 127.629 437.962 127.242 438.392 126.965C438.825 126.684 439.294 126.543 439.798 126.543C440.622 126.543 441.263 126.814 441.72 127.357C442.177 127.9 442.405 128.678 442.405 129.689V130.141H438.111C438.126 130.766 438.308 131.271 438.655 131.658C439.007 132.041 439.452 132.232 439.991 132.232C440.374 132.232 440.698 132.154 440.964 131.998C441.23 131.842 441.462 131.635 441.661 131.377L442.323 131.893C441.792 132.709 440.995 133.117 439.933 133.117ZM439.798 127.434C439.361 127.434 438.993 127.594 438.696 127.914C438.4 128.23 438.216 128.676 438.146 129.25H441.321V129.168C441.29 128.617 441.142 128.191 440.876 127.891C440.611 127.586 440.251 127.434 439.798 127.434ZM449.432 129.9C449.432 130.869 449.21 131.648 448.764 132.238C448.319 132.824 447.721 133.117 446.971 133.117C446.171 133.117 445.552 132.834 445.114 132.268L445.061 133H444.065V124H445.149V127.357C445.587 126.814 446.19 126.543 446.96 126.543C447.729 126.543 448.333 126.834 448.77 127.416C449.212 127.998 449.432 128.795 449.432 129.807V129.9ZM448.348 129.777C448.348 129.039 448.206 128.469 447.921 128.066C447.636 127.664 447.225 127.463 446.69 127.463C445.975 127.463 445.462 127.795 445.149 128.459V131.201C445.481 131.865 445.999 132.197 446.702 132.197C447.221 132.197 447.626 131.996 447.915 131.594C448.204 131.191 448.348 130.586 448.348 129.777Z" fill="#313C4E"/>
<path d="M527.089 125.395H524.347V133H523.228V125.395H520.492V124.469H527.089V125.395ZM529.669 127.428C530.15 126.838 530.775 126.543 531.544 126.543C532.884 126.543 533.56 127.299 533.571 128.811V133H532.487V128.805C532.484 128.348 532.378 128.01 532.171 127.791C531.968 127.572 531.65 127.463 531.216 127.463C530.864 127.463 530.556 127.557 530.29 127.744C530.025 127.932 529.818 128.178 529.669 128.482V133H528.585V124H529.669V127.428ZM539.509 132.373C539.087 132.869 538.468 133.117 537.651 133.117C536.975 133.117 536.46 132.922 536.104 132.531C535.753 132.137 535.575 131.555 535.571 130.785V126.66H536.655V130.756C536.655 131.717 537.046 132.197 537.827 132.197C538.655 132.197 539.206 131.889 539.479 131.271V126.66H540.563V133H539.532L539.509 132.373Z" fill="#313C4E"/>
<path d="M623.363 129.232H619.783V133H618.658V124.469H623.943V125.395H619.783V128.312H623.363V129.232ZM628.433 127.633C628.269 127.605 628.091 127.592 627.9 127.592C627.189 127.592 626.706 127.895 626.452 128.5V133H625.368V126.66H626.423L626.441 127.393C626.796 126.826 627.3 126.543 627.952 126.543C628.163 126.543 628.323 126.57 628.433 126.625V127.633ZM631.013 133H629.929V126.66H631.013V133ZM629.841 124.979C629.841 124.803 629.893 124.654 629.999 124.533C630.108 124.412 630.268 124.352 630.479 124.352C630.69 124.352 630.85 124.412 630.96 124.533C631.069 124.654 631.124 124.803 631.124 124.979C631.124 125.154 631.069 125.301 630.96 125.418C630.85 125.535 630.69 125.594 630.479 125.594C630.268 125.594 630.108 125.535 629.999 125.418C629.893 125.301 629.841 125.154 629.841 124.979Z" fill="#313C4E"/>
<rect x="39" y="149" width="48" height="48" fill="#212936"/>
<rect x="133" y="149" width="48" height="48" fill="#212936"/>
<path d="M251.128 178H249.675V168.367L246.761 169.438V168.125L250.902 166.57H251.128V178Z" fill="#AFBDD1"/>
<path d="M347.831 178H340.378V176.961L344.316 172.586C344.899 171.924 345.3 171.388 345.519 170.977C345.743 170.56 345.855 170.13 345.855 169.688C345.855 169.094 345.675 168.607 345.316 168.227C344.956 167.846 344.477 167.656 343.878 167.656C343.159 167.656 342.599 167.862 342.198 168.273C341.803 168.68 341.605 169.247 341.605 169.977H340.159C340.159 168.93 340.495 168.083 341.167 167.438C341.844 166.792 342.748 166.469 343.878 166.469C344.935 166.469 345.771 166.747 346.386 167.305C347.001 167.857 347.308 168.594 347.308 169.516C347.308 170.635 346.594 171.969 345.167 173.516L342.12 176.82H347.831V178Z" fill="white"/>
<path d="M436.48 171.609H437.566C438.248 171.599 438.784 171.419 439.175 171.07C439.566 170.721 439.761 170.25 439.761 169.656C439.761 168.323 439.097 167.656 437.769 167.656C437.144 167.656 436.644 167.836 436.269 168.195C435.899 168.549 435.714 169.021 435.714 169.609H434.269C434.269 168.708 434.597 167.961 435.253 167.367C435.915 166.768 436.753 166.469 437.769 166.469C438.842 166.469 439.683 166.753 440.292 167.32C440.902 167.888 441.206 168.677 441.206 169.688C441.206 170.182 441.045 170.661 440.722 171.125C440.404 171.589 439.969 171.935 439.417 172.164C440.042 172.362 440.524 172.69 440.863 173.148C441.206 173.607 441.378 174.167 441.378 174.828C441.378 175.849 441.045 176.659 440.378 177.258C439.711 177.857 438.844 178.156 437.777 178.156C436.709 178.156 435.839 177.867 435.167 177.289C434.501 176.711 434.167 175.948 434.167 175H435.62C435.62 175.599 435.816 176.078 436.206 176.438C436.597 176.797 437.12 176.977 437.777 176.977C438.474 176.977 439.008 176.794 439.378 176.43C439.748 176.065 439.933 175.542 439.933 174.859C439.933 174.198 439.73 173.69 439.323 173.336C438.917 172.982 438.331 172.799 437.566 172.789H436.48V171.609Z" fill="#AFBDD1"/>
<path d="M533.48 174.18H535.058V175.359H533.48V178H532.027V175.359H526.847V174.508L531.941 166.625H533.48V174.18ZM528.488 174.18H532.027V168.602L531.855 168.914L528.488 174.18Z" fill="#AFBDD1"/>
<path d="M622.042 172.297L622.62 166.625H628.448V167.961H623.847L623.503 171.062C624.06 170.734 624.693 170.57 625.402 170.57C626.438 170.57 627.261 170.914 627.87 171.602C628.48 172.284 628.784 173.208 628.784 174.375C628.784 175.547 628.467 176.471 627.831 177.148C627.201 177.82 626.318 178.156 625.183 178.156C624.178 178.156 623.357 177.878 622.722 177.32C622.086 176.763 621.724 175.992 621.636 175.008H623.003C623.092 175.659 623.323 176.151 623.698 176.484C624.073 176.812 624.568 176.977 625.183 176.977C625.855 176.977 626.381 176.747 626.761 176.289C627.146 175.831 627.339 175.198 627.339 174.391C627.339 173.63 627.131 173.021 626.714 172.562C626.303 172.099 625.753 171.867 625.066 171.867C624.435 171.867 623.941 172.005 623.581 172.281L623.198 172.594L622.042 172.297Z" fill="#AFBDD1"/>
<path d="M65.05 218.617V219.844H64.7844C63.6594 219.865 62.7635 220.198 62.0969 220.844C61.4302 221.49 61.0448 222.398 60.9406 223.57C61.5396 222.883 62.3573 222.539 63.3938 222.539C64.3833 222.539 65.1724 222.888 65.7609 223.586C66.3547 224.284 66.6516 225.185 66.6516 226.289C66.6516 227.461 66.3313 228.398 65.6906 229.102C65.0552 229.805 64.201 230.156 63.1281 230.156C62.0396 230.156 61.1568 229.74 60.4797 228.906C59.8026 228.068 59.4641 226.99 59.4641 225.672V225.117C59.4641 223.023 59.9094 221.424 60.8 220.32C61.6958 219.211 63.0266 218.643 64.7922 218.617H65.05ZM63.1516 223.742C62.6568 223.742 62.201 223.891 61.7844 224.188C61.3677 224.484 61.0786 224.857 60.9172 225.305V225.836C60.9172 226.773 61.1281 227.529 61.55 228.102C61.9719 228.674 62.4979 228.961 63.1281 228.961C63.7792 228.961 64.2896 228.721 64.6594 228.242C65.0344 227.763 65.2219 227.135 65.2219 226.359C65.2219 225.578 65.0318 224.948 64.6516 224.469C64.2766 223.984 63.7766 223.742 63.1516 223.742Z" fill="#AFBDD1"/>
<path d="M160.722 219.438L156.011 230H154.495L159.191 219.812H153.034V218.625H160.722V219.438Z" fill="#AFBDD1"/>
<path d="M253.277 221.594C253.277 222.161 253.126 222.667 252.823 223.109C252.527 223.552 252.123 223.898 251.613 224.148C252.206 224.404 252.675 224.776 253.019 225.266C253.368 225.755 253.542 226.31 253.542 226.93C253.542 227.914 253.209 228.698 252.542 229.281C251.881 229.865 251.008 230.156 249.925 230.156C248.831 230.156 247.954 229.865 247.292 229.281C246.636 228.693 246.308 227.909 246.308 226.93C246.308 226.315 246.474 225.76 246.808 225.266C247.146 224.771 247.613 224.396 248.206 224.141C247.701 223.891 247.303 223.544 247.011 223.102C246.719 222.659 246.573 222.156 246.573 221.594C246.573 220.635 246.881 219.875 247.495 219.312C248.11 218.75 248.92 218.469 249.925 218.469C250.925 218.469 251.732 218.75 252.347 219.312C252.967 219.875 253.277 220.635 253.277 221.594ZM252.097 226.898C252.097 226.263 251.894 225.745 251.488 225.344C251.086 224.943 250.56 224.742 249.909 224.742C249.258 224.742 248.735 224.94 248.339 225.336C247.948 225.732 247.753 226.253 247.753 226.898C247.753 227.544 247.943 228.052 248.323 228.422C248.709 228.792 249.243 228.977 249.925 228.977C250.602 228.977 251.133 228.792 251.519 228.422C251.904 228.047 252.097 227.539 252.097 226.898ZM249.925 219.656C249.357 219.656 248.896 219.833 248.542 220.188C248.193 220.536 248.019 221.013 248.019 221.617C248.019 222.195 248.191 222.664 248.534 223.023C248.883 223.378 249.347 223.555 249.925 223.555C250.503 223.555 250.964 223.378 251.308 223.023C251.657 222.664 251.831 222.195 251.831 221.617C251.831 221.039 251.652 220.568 251.292 220.203C250.933 219.839 250.477 219.656 249.925 219.656Z" fill="#AFBDD1"/>
<path d="M345.917 225C345.615 225.359 345.253 225.648 344.831 225.867C344.415 226.086 343.956 226.195 343.456 226.195C342.8 226.195 342.227 226.034 341.738 225.711C341.253 225.388 340.878 224.935 340.613 224.352C340.347 223.763 340.214 223.115 340.214 222.406C340.214 221.646 340.357 220.961 340.644 220.352C340.935 219.742 341.347 219.276 341.878 218.953C342.409 218.63 343.029 218.469 343.738 218.469C344.863 218.469 345.748 218.891 346.394 219.734C347.045 220.573 347.37 221.719 347.37 223.172V223.594C347.37 225.807 346.933 227.424 346.058 228.445C345.183 229.461 343.863 229.982 342.097 230.008H341.816V228.789H342.12C343.313 228.768 344.23 228.458 344.87 227.859C345.511 227.255 345.86 226.302 345.917 225ZM343.691 225C344.175 225 344.62 224.852 345.027 224.555C345.438 224.258 345.738 223.891 345.925 223.453V222.875C345.925 221.927 345.719 221.156 345.308 220.562C344.896 219.969 344.376 219.672 343.745 219.672C343.11 219.672 342.599 219.917 342.214 220.406C341.829 220.891 341.636 221.531 341.636 222.328C341.636 223.104 341.821 223.745 342.191 224.25C342.566 224.75 343.066 225 343.691 225Z" fill="#AFBDD1"/>
<path d="M434.561 230H433.108V220.367L430.194 221.438V220.125L434.334 218.57H434.561V230ZM446.078 225.148C446.078 226.841 445.789 228.099 445.211 228.922C444.633 229.745 443.729 230.156 442.5 230.156C441.286 230.156 440.388 229.755 439.805 228.953C439.221 228.146 438.919 226.943 438.898 225.344V223.414C438.898 221.742 439.188 220.5 439.766 219.688C440.344 218.875 441.25 218.469 442.484 218.469C443.708 218.469 444.609 218.862 445.188 219.648C445.766 220.43 446.062 221.638 446.078 223.273V225.148ZM444.633 223.172C444.633 221.948 444.461 221.057 444.117 220.5C443.773 219.938 443.229 219.656 442.484 219.656C441.745 219.656 441.206 219.935 440.867 220.492C440.529 221.049 440.354 221.906 440.344 223.062V225.375C440.344 226.604 440.521 227.513 440.875 228.102C441.234 228.685 441.776 228.977 442.5 228.977C443.214 228.977 443.742 228.701 444.086 228.148C444.435 227.596 444.617 226.727 444.633 225.539V223.172Z" fill="#AFBDD1"/>
<path d="M527.561 230H526.108V220.367L523.194 221.438V220.125L527.334 218.57H527.561V230ZM536.695 230H535.242V220.367L532.328 221.438V220.125L536.469 218.57H536.695V230Z" fill="#AFBDD1"/>
<path d="M621.561 282H620.108V272.367L617.194 273.438V272.125L621.334 270.57H621.561V282ZM631.484 277C631.182 277.359 630.82 277.648 630.398 277.867C629.982 278.086 629.523 278.195 629.023 278.195C628.367 278.195 627.794 278.034 627.305 277.711C626.82 277.388 626.445 276.935 626.18 276.352C625.914 275.763 625.781 275.115 625.781 274.406C625.781 273.646 625.924 272.961 626.211 272.352C626.503 271.742 626.914 271.276 627.445 270.953C627.977 270.63 628.596 270.469 629.305 270.469C630.43 270.469 631.315 270.891 631.961 271.734C632.612 272.573 632.938 273.719 632.938 275.172V275.594C632.938 277.807 632.5 279.424 631.625 280.445C630.75 281.461 629.43 281.982 627.664 282.008H627.383V280.789H627.688C628.88 280.768 629.797 280.458 630.438 279.859C631.078 279.255 631.427 278.302 631.484 277ZM629.258 277C629.742 277 630.188 276.852 630.594 276.555C631.005 276.258 631.305 275.891 631.492 275.453V274.875C631.492 273.927 631.286 273.156 630.875 272.562C630.464 271.969 629.943 271.672 629.312 271.672C628.677 271.672 628.167 271.917 627.781 272.406C627.396 272.891 627.203 273.531 627.203 274.328C627.203 275.104 627.388 275.745 627.758 276.25C628.133 276.75 628.633 277 629.258 277Z" fill="#AFBDD1"/>
<path d="M59.5609 282H58.1078V272.367L55.1938 273.438V272.125L59.3344 270.57H59.5609V282ZM66.0469 275.609H67.1328C67.8151 275.599 68.3516 275.419 68.7422 275.07C69.1328 274.721 69.3281 274.25 69.3281 273.656C69.3281 272.323 68.6641 271.656 67.3359 271.656C66.7109 271.656 66.2109 271.836 65.8359 272.195C65.4661 272.549 65.2812 273.021 65.2812 273.609H63.8359C63.8359 272.708 64.1641 271.961 64.8203 271.367C65.4818 270.768 66.3203 270.469 67.3359 270.469C68.4089 270.469 69.25 270.753 69.8594 271.32C70.4688 271.888 70.7734 272.677 70.7734 273.688C70.7734 274.182 70.612 274.661 70.2891 275.125C69.9714 275.589 69.5365 275.935 68.9844 276.164C69.6094 276.362 70.0911 276.69 70.4297 277.148C70.7734 277.607 70.9453 278.167 70.9453 278.828C70.9453 279.849 70.612 280.659 69.9453 281.258C69.2786 281.857 68.4115 282.156 67.3438 282.156C66.276 282.156 65.4062 281.867 64.7344 281.289C64.0677 280.711 63.7344 279.948 63.7344 279H65.1875C65.1875 279.599 65.3828 280.078 65.7734 280.438C66.1641 280.797 66.6875 280.977 67.3438 280.977C68.0417 280.977 68.5755 280.794 68.9453 280.43C69.3151 280.065 69.5 279.542 69.5 278.859C69.5 278.198 69.2969 277.69 68.8906 277.336C68.4844 276.982 67.8984 276.799 67.1328 276.789H66.0469V275.609Z" fill="#AFBDD1"/>
<path d="M153.561 282H152.108V272.367L149.194 273.438V272.125L153.334 270.57H153.561V282ZM164.047 278.18H165.625V279.359H164.047V282H162.594V279.359H157.414V278.508L162.508 270.625H164.047V278.18ZM159.055 278.18H162.594V272.602L162.422 272.914L159.055 278.18Z" fill="#AFBDD1"/>
<path d="M246.561 282H245.108V272.367L242.194 273.438V272.125L246.334 270.57H246.561V282ZM251.609 276.297L252.188 270.625H258.016V271.961H253.414L253.07 275.062C253.628 274.734 254.26 274.57 254.969 274.57C256.005 274.57 256.828 274.914 257.438 275.602C258.047 276.284 258.352 277.208 258.352 278.375C258.352 279.547 258.034 280.471 257.398 281.148C256.768 281.82 255.885 282.156 254.75 282.156C253.745 282.156 252.924 281.878 252.289 281.32C251.654 280.763 251.292 279.992 251.203 279.008H252.57C252.659 279.659 252.891 280.151 253.266 280.484C253.641 280.812 254.135 280.977 254.75 280.977C255.422 280.977 255.948 280.747 256.328 280.289C256.714 279.831 256.906 279.198 256.906 278.391C256.906 277.63 256.698 277.021 256.281 276.562C255.87 276.099 255.32 275.867 254.633 275.867C254.003 275.867 253.508 276.005 253.148 276.281L252.766 276.594L251.609 276.297Z" fill="#AFBDD1"/>
<path d="M340.561 282H339.108V272.367L336.194 273.438V272.125L340.334 270.57H340.561V282ZM350.617 270.617V271.844H350.352C349.227 271.865 348.331 272.198 347.664 272.844C346.997 273.49 346.612 274.398 346.508 275.57C347.107 274.883 347.924 274.539 348.961 274.539C349.951 274.539 350.74 274.888 351.328 275.586C351.922 276.284 352.219 277.185 352.219 278.289C352.219 279.461 351.898 280.398 351.258 281.102C350.622 281.805 349.768 282.156 348.695 282.156C347.607 282.156 346.724 281.74 346.047 280.906C345.37 280.068 345.031 278.99 345.031 277.672V277.117C345.031 275.023 345.477 273.424 346.367 272.32C347.263 271.211 348.594 270.643 350.359 270.617H350.617ZM348.719 275.742C348.224 275.742 347.768 275.891 347.352 276.188C346.935 276.484 346.646 276.857 346.484 277.305V277.836C346.484 278.773 346.695 279.529 347.117 280.102C347.539 280.674 348.065 280.961 348.695 280.961C349.346 280.961 349.857 280.721 350.227 280.242C350.602 279.763 350.789 279.135 350.789 278.359C350.789 277.578 350.599 276.948 350.219 276.469C349.844 275.984 349.344 275.742 348.719 275.742Z" fill="#AFBDD1"/>
<path d="M434.561 282H433.108V272.367L430.194 273.438V272.125L434.334 270.57H434.561V282ZM446.289 271.438L441.578 282H440.062L444.758 271.812H438.602V270.625H446.289V271.438Z" fill="#AFBDD1"/>
<path d="M527.561 282H526.108V272.367L523.194 273.438V272.125L527.334 270.57H527.561V282ZM538.844 273.594C538.844 274.161 538.693 274.667 538.391 275.109C538.094 275.552 537.69 275.898 537.18 276.148C537.773 276.404 538.242 276.776 538.586 277.266C538.935 277.755 539.109 278.31 539.109 278.93C539.109 279.914 538.776 280.698 538.109 281.281C537.448 281.865 536.576 282.156 535.492 282.156C534.398 282.156 533.521 281.865 532.859 281.281C532.203 280.693 531.875 279.909 531.875 278.93C531.875 278.315 532.042 277.76 532.375 277.266C532.714 276.771 533.18 276.396 533.773 276.141C533.268 275.891 532.87 275.544 532.578 275.102C532.286 274.659 532.141 274.156 532.141 273.594C532.141 272.635 532.448 271.875 533.062 271.312C533.677 270.75 534.487 270.469 535.492 270.469C536.492 270.469 537.299 270.75 537.914 271.312C538.534 271.875 538.844 272.635 538.844 273.594ZM537.664 278.898C537.664 278.263 537.461 277.745 537.055 277.344C536.654 276.943 536.128 276.742 535.477 276.742C534.826 276.742 534.302 276.94 533.906 277.336C533.516 277.732 533.32 278.253 533.32 278.898C533.32 279.544 533.51 280.052 533.891 280.422C534.276 280.792 534.81 280.977 535.492 280.977C536.169 280.977 536.701 280.792 537.086 280.422C537.471 280.047 537.664 279.539 537.664 278.898ZM535.492 271.656C534.924 271.656 534.464 271.833 534.109 272.188C533.76 272.536 533.586 273.013 533.586 273.617C533.586 274.195 533.758 274.664 534.102 275.023C534.451 275.378 534.914 275.555 535.492 275.555C536.07 275.555 536.531 275.378 536.875 275.023C537.224 274.664 537.398 274.195 537.398 273.617C537.398 273.039 537.219 272.568 536.859 272.203C536.5 271.839 536.044 271.656 535.492 271.656Z" fill="#AFBDD1"/>
<path d="M624.264 334H616.811V332.961L620.748 328.586C621.332 327.924 621.733 327.388 621.952 326.977C622.176 326.56 622.288 326.13 622.288 325.688C622.288 325.094 622.108 324.607 621.748 324.227C621.389 323.846 620.91 323.656 620.311 323.656C619.592 323.656 619.032 323.862 618.631 324.273C618.235 324.68 618.038 325.247 618.038 325.977H616.592C616.592 324.93 616.928 324.083 617.6 323.438C618.277 322.792 619.181 322.469 620.311 322.469C621.368 322.469 622.204 322.747 622.819 323.305C623.433 323.857 623.741 324.594 623.741 325.516C623.741 326.635 623.027 327.969 621.6 329.516L618.553 332.82H624.264V334ZM631.617 322.617V323.844H631.352C630.227 323.865 629.331 324.198 628.664 324.844C627.997 325.49 627.612 326.398 627.508 327.57C628.107 326.883 628.924 326.539 629.961 326.539C630.951 326.539 631.74 326.888 632.328 327.586C632.922 328.284 633.219 329.185 633.219 330.289C633.219 331.461 632.898 332.398 632.258 333.102C631.622 333.805 630.768 334.156 629.695 334.156C628.607 334.156 627.724 333.74 627.047 332.906C626.37 332.068 626.031 330.99 626.031 329.672V329.117C626.031 327.023 626.477 325.424 627.367 324.32C628.263 323.211 629.594 322.643 631.359 322.617H631.617ZM629.719 327.742C629.224 327.742 628.768 327.891 628.352 328.188C627.935 328.484 627.646 328.857 627.484 329.305V329.836C627.484 330.773 627.695 331.529 628.117 332.102C628.539 332.674 629.065 332.961 629.695 332.961C630.346 332.961 630.857 332.721 631.227 332.242C631.602 331.763 631.789 331.135 631.789 330.359C631.789 329.578 631.599 328.948 631.219 328.469C630.844 327.984 630.344 327.742 629.719 327.742Z" fill="#AFBDD1"/>
<path d="M62.2641 334H54.8109V332.961L58.7484 328.586C59.3318 327.924 59.7328 327.388 59.9516 326.977C60.1755 326.56 60.2875 326.13 60.2875 325.688C60.2875 325.094 60.1078 324.607 59.7484 324.227C59.3891 323.846 58.9099 323.656 58.3109 323.656C57.5922 323.656 57.0323 323.862 56.6313 324.273C56.2354 324.68 56.0375 325.247 56.0375 325.977H54.5922C54.5922 324.93 54.9281 324.083 55.6 323.438C56.2771 322.792 57.1807 322.469 58.3109 322.469C59.3682 322.469 60.2042 322.747 60.8188 323.305C61.4333 323.857 61.7406 324.594 61.7406 325.516C61.7406 326.635 61.0271 327.969 59.6 329.516L56.5531 332.82H62.2641V334ZM71.0781 329.148C71.0781 330.841 70.7891 332.099 70.2109 332.922C69.6328 333.745 68.7292 334.156 67.5 334.156C66.2865 334.156 65.388 333.755 64.8047 332.953C64.2214 332.146 63.9193 330.943 63.8984 329.344V327.414C63.8984 325.742 64.1875 324.5 64.7656 323.688C65.3438 322.875 66.25 322.469 67.4844 322.469C68.7083 322.469 69.6094 322.862 70.1875 323.648C70.7656 324.43 71.0625 325.638 71.0781 327.273V329.148ZM69.6328 327.172C69.6328 325.948 69.4609 325.057 69.1172 324.5C68.7734 323.938 68.2292 323.656 67.4844 323.656C66.7448 323.656 66.2057 323.935 65.8672 324.492C65.5286 325.049 65.3542 325.906 65.3438 327.062V329.375C65.3438 330.604 65.5208 331.513 65.875 332.102C66.2344 332.685 66.776 332.977 67.5 332.977C68.2135 332.977 68.7422 332.701 69.0859 332.148C69.4349 331.596 69.6172 330.727 69.6328 329.539V327.172Z" fill="#AFBDD1"/>
<path d="M156.264 334H148.811V332.961L152.748 328.586C153.332 327.924 153.733 327.388 153.952 326.977C154.176 326.56 154.288 326.13 154.288 325.688C154.288 325.094 154.108 324.607 153.748 324.227C153.389 323.846 152.91 323.656 152.311 323.656C151.592 323.656 151.032 323.862 150.631 324.273C150.235 324.68 150.038 325.247 150.038 325.977H148.592C148.592 324.93 148.928 324.083 149.6 323.438C150.277 322.792 151.181 322.469 152.311 322.469C153.368 322.469 154.204 322.747 154.819 323.305C155.433 323.857 155.741 324.594 155.741 325.516C155.741 326.635 155.027 327.969 153.6 329.516L150.553 332.82H156.264V334ZM162.695 334H161.242V324.367L158.328 325.438V324.125L162.469 322.57H162.695V334Z" fill="#AFBDD1"/>
<path d="M249.264 334H241.811V332.961L245.748 328.586C246.332 327.924 246.733 327.388 246.952 326.977C247.176 326.56 247.288 326.13 247.288 325.688C247.288 325.094 247.108 324.607 246.748 324.227C246.389 323.846 245.91 323.656 245.311 323.656C244.592 323.656 244.032 323.862 243.631 324.273C243.235 324.68 243.038 325.247 243.038 325.977H241.592C241.592 324.93 241.928 324.083 242.6 323.438C243.277 322.792 244.181 322.469 245.311 322.469C246.368 322.469 247.204 322.747 247.819 323.305C248.433 323.857 248.741 324.594 248.741 325.516C248.741 326.635 248.027 327.969 246.6 329.516L243.553 332.82H249.264V334ZM258.398 334H250.945V332.961L254.883 328.586C255.466 327.924 255.867 327.388 256.086 326.977C256.31 326.56 256.422 326.13 256.422 325.688C256.422 325.094 256.242 324.607 255.883 324.227C255.523 323.846 255.044 323.656 254.445 323.656C253.727 323.656 253.167 323.862 252.766 324.273C252.37 324.68 252.172 325.247 252.172 325.977H250.727C250.727 324.93 251.062 324.083 251.734 323.438C252.411 322.792 253.315 322.469 254.445 322.469C255.503 322.469 256.339 322.747 256.953 323.305C257.568 323.857 257.875 324.594 257.875 325.516C257.875 326.635 257.161 327.969 255.734 329.516L252.688 332.82H258.398V334Z" fill="#AFBDD1"/>
<path d="M343.264 334H335.811V332.961L339.748 328.586C340.332 327.924 340.733 327.388 340.952 326.977C341.176 326.56 341.288 326.13 341.288 325.688C341.288 325.094 341.108 324.607 340.748 324.227C340.389 323.846 339.91 323.656 339.311 323.656C338.592 323.656 338.032 323.862 337.631 324.273C337.235 324.68 337.038 325.247 337.038 325.977H335.592C335.592 324.93 335.928 324.083 336.6 323.438C337.277 322.792 338.181 322.469 339.311 322.469C340.368 322.469 341.204 322.747 341.819 323.305C342.433 323.857 342.741 324.594 342.741 325.516C342.741 326.635 342.027 327.969 340.6 329.516L337.553 332.82H343.264V334ZM347.047 327.609H348.133C348.815 327.599 349.352 327.419 349.742 327.07C350.133 326.721 350.328 326.25 350.328 325.656C350.328 324.323 349.664 323.656 348.336 323.656C347.711 323.656 347.211 323.836 346.836 324.195C346.466 324.549 346.281 325.021 346.281 325.609H344.836C344.836 324.708 345.164 323.961 345.82 323.367C346.482 322.768 347.32 322.469 348.336 322.469C349.409 322.469 350.25 322.753 350.859 323.32C351.469 323.888 351.773 324.677 351.773 325.688C351.773 326.182 351.612 326.661 351.289 327.125C350.971 327.589 350.536 327.935 349.984 328.164C350.609 328.362 351.091 328.69 351.43 329.148C351.773 329.607 351.945 330.167 351.945 330.828C351.945 331.849 351.612 332.659 350.945 333.258C350.279 333.857 349.411 334.156 348.344 334.156C347.276 334.156 346.406 333.867 345.734 333.289C345.068 332.711 344.734 331.948 344.734 331H346.188C346.188 331.599 346.383 332.078 346.773 332.438C347.164 332.797 347.688 332.977 348.344 332.977C349.042 332.977 349.576 332.794 349.945 332.43C350.315 332.065 350.5 331.542 350.5 330.859C350.5 330.198 350.297 329.69 349.891 329.336C349.484 328.982 348.898 328.799 348.133 328.789H347.047V327.609Z" fill="#AFBDD1"/>
<path d="M437.264 334H429.811V332.961L433.748 328.586C434.332 327.924 434.733 327.388 434.952 326.977C435.176 326.56 435.288 326.13 435.288 325.688C435.288 325.094 435.108 324.607 434.748 324.227C434.389 323.846 433.91 323.656 433.311 323.656C432.592 323.656 432.032 323.862 431.631 324.273C431.235 324.68 431.038 325.247 431.038 325.977H429.592C429.592 324.93 429.928 324.083 430.6 323.438C431.277 322.792 432.181 322.469 433.311 322.469C434.368 322.469 435.204 322.747 435.819 323.305C436.433 323.857 436.741 324.594 436.741 325.516C436.741 326.635 436.027 327.969 434.6 329.516L431.553 332.82H437.264V334ZM445.047 330.18H446.625V331.359H445.047V334H443.594V331.359H438.414V330.508L443.508 322.625H445.047V330.18ZM440.055 330.18H443.594V324.602L443.422 324.914L440.055 330.18Z" fill="#AFBDD1"/>
<path d="M530.264 334H522.811V332.961L526.748 328.586C527.332 327.924 527.733 327.388 527.952 326.977C528.176 326.56 528.288 326.13 528.288 325.688C528.288 325.094 528.108 324.607 527.748 324.227C527.389 323.846 526.91 323.656 526.311 323.656C525.592 323.656 525.032 323.862 524.631 324.273C524.235 324.68 524.038 325.247 524.038 325.977H522.592C522.592 324.93 522.928 324.083 523.6 323.438C524.277 322.792 525.181 322.469 526.311 322.469C527.368 322.469 528.204 322.747 528.819 323.305C529.433 323.857 529.741 324.594 529.741 325.516C529.741 326.635 529.027 327.969 527.6 329.516L524.553 332.82H530.264V334ZM532.609 328.297L533.188 322.625H539.016V323.961H534.414L534.07 327.062C534.628 326.734 535.26 326.57 535.969 326.57C537.005 326.57 537.828 326.914 538.438 327.602C539.047 328.284 539.352 329.208 539.352 330.375C539.352 331.547 539.034 332.471 538.398 333.148C537.768 333.82 536.885 334.156 535.75 334.156C534.745 334.156 533.924 333.878 533.289 333.32C532.654 332.763 532.292 331.992 532.203 331.008H533.57C533.659 331.659 533.891 332.151 534.266 332.484C534.641 332.812 535.135 332.977 535.75 332.977C536.422 332.977 536.948 332.747 537.328 332.289C537.714 331.831 537.906 331.198 537.906 330.391C537.906 329.63 537.698 329.021 537.281 328.562C536.87 328.099 536.32 327.867 535.633 327.867C535.003 327.867 534.508 328.005 534.148 328.281L533.766 328.594L532.609 328.297Z" fill="#AFBDD1"/>
<rect x="507" y="357" width="48" height="48" fill="#212936"/>
<path d="M62.2641 386H54.8109V384.961L58.7484 380.586C59.3318 379.924 59.7328 379.388 59.9516 378.977C60.1755 378.56 60.2875 378.13 60.2875 377.688C60.2875 377.094 60.1078 376.607 59.7484 376.227C59.3891 375.846 58.9099 375.656 58.3109 375.656C57.5922 375.656 57.0323 375.862 56.6313 376.273C56.2354 376.68 56.0375 377.247 56.0375 377.977H54.5922C54.5922 376.93 54.9281 376.083 55.6 375.438C56.2771 374.792 57.1807 374.469 58.3109 374.469C59.3682 374.469 60.2042 374.747 60.8188 375.305C61.4333 375.857 61.7406 376.594 61.7406 377.516C61.7406 378.635 61.0271 379.969 59.6 381.516L56.5531 384.82H62.2641V386ZM71.2891 375.438L66.5781 386H65.0625L69.7578 375.812H63.6016V374.625H71.2891V375.438Z" fill="#AFBDD1"/>
<path d="M156.264 386H148.811V384.961L152.748 380.586C153.332 379.924 153.733 379.388 153.952 378.977C154.176 378.56 154.288 378.13 154.288 377.688C154.288 377.094 154.108 376.607 153.748 376.227C153.389 375.846 152.91 375.656 152.311 375.656C151.592 375.656 151.032 375.862 150.631 376.273C150.235 376.68 150.038 377.247 150.038 377.977H148.592C148.592 376.93 148.928 376.083 149.6 375.438C150.277 374.792 151.181 374.469 152.311 374.469C153.368 374.469 154.204 374.747 154.819 375.305C155.433 375.857 155.741 376.594 155.741 377.516C155.741 378.635 155.027 379.969 153.6 381.516L150.553 384.82H156.264V386ZM164.844 377.594C164.844 378.161 164.693 378.667 164.391 379.109C164.094 379.552 163.69 379.898 163.18 380.148C163.773 380.404 164.242 380.776 164.586 381.266C164.935 381.755 165.109 382.31 165.109 382.93C165.109 383.914 164.776 384.698 164.109 385.281C163.448 385.865 162.576 386.156 161.492 386.156C160.398 386.156 159.521 385.865 158.859 385.281C158.203 384.693 157.875 383.909 157.875 382.93C157.875 382.315 158.042 381.76 158.375 381.266C158.714 380.771 159.18 380.396 159.773 380.141C159.268 379.891 158.87 379.544 158.578 379.102C158.286 378.659 158.141 378.156 158.141 377.594C158.141 376.635 158.448 375.875 159.062 375.312C159.677 374.75 160.487 374.469 161.492 374.469C162.492 374.469 163.299 374.75 163.914 375.312C164.534 375.875 164.844 376.635 164.844 377.594ZM163.664 382.898C163.664 382.263 163.461 381.745 163.055 381.344C162.654 380.943 162.128 380.742 161.477 380.742C160.826 380.742 160.302 380.94 159.906 381.336C159.516 381.732 159.32 382.253 159.32 382.898C159.32 383.544 159.51 384.052 159.891 384.422C160.276 384.792 160.81 384.977 161.492 384.977C162.169 384.977 162.701 384.792 163.086 384.422C163.471 384.047 163.664 383.539 163.664 382.898ZM161.492 375.656C160.924 375.656 160.464 375.833 160.109 376.188C159.76 376.536 159.586 377.013 159.586 377.617C159.586 378.195 159.758 378.664 160.102 379.023C160.451 379.378 160.914 379.555 161.492 379.555C162.07 379.555 162.531 379.378 162.875 379.023C163.224 378.664 163.398 378.195 163.398 377.617C163.398 377.039 163.219 376.568 162.859 376.203C162.5 375.839 162.044 375.656 161.492 375.656Z" fill="#AFBDD1"/>
<path d="M249.264 386H241.811V384.961L245.748 380.586C246.332 379.924 246.733 379.388 246.952 378.977C247.176 378.56 247.288 378.13 247.288 377.688C247.288 377.094 247.108 376.607 246.748 376.227C246.389 375.846 245.91 375.656 245.311 375.656C244.592 375.656 244.032 375.862 243.631 376.273C243.235 376.68 243.038 377.247 243.038 377.977H241.592C241.592 376.93 241.928 376.083 242.6 375.438C243.277 374.792 244.181 374.469 245.311 374.469C246.368 374.469 247.204 374.747 247.819 375.305C248.433 375.857 248.741 376.594 248.741 377.516C248.741 378.635 248.027 379.969 246.6 381.516L243.553 384.82H249.264V386ZM256.484 381C256.182 381.359 255.82 381.648 255.398 381.867C254.982 382.086 254.523 382.195 254.023 382.195C253.367 382.195 252.794 382.034 252.305 381.711C251.82 381.388 251.445 380.935 251.18 380.352C250.914 379.763 250.781 379.115 250.781 378.406C250.781 377.646 250.924 376.961 251.211 376.352C251.503 375.742 251.914 375.276 252.445 374.953C252.977 374.63 253.596 374.469 254.305 374.469C255.43 374.469 256.315 374.891 256.961 375.734C257.612 376.573 257.938 377.719 257.938 379.172V379.594C257.938 381.807 257.5 383.424 256.625 384.445C255.75 385.461 254.43 385.982 252.664 386.008H252.383V384.789H252.688C253.88 384.768 254.797 384.458 255.438 383.859C256.078 383.255 256.427 382.302 256.484 381ZM254.258 381C254.742 381 255.188 380.852 255.594 380.555C256.005 380.258 256.305 379.891 256.492 379.453V378.875C256.492 377.927 256.286 377.156 255.875 376.562C255.464 375.969 254.943 375.672 254.312 375.672C253.677 375.672 253.167 375.917 252.781 376.406C252.396 376.891 252.203 377.531 252.203 378.328C252.203 379.104 252.388 379.745 252.758 380.25C253.133 380.75 253.633 381 254.258 381Z" fill="#AFBDD1"/>
<path d="M337.913 379.609H338.998C339.681 379.599 340.217 379.419 340.608 379.07C340.998 378.721 341.194 378.25 341.194 377.656C341.194 376.323 340.53 375.656 339.202 375.656C338.577 375.656 338.077 375.836 337.702 376.195C337.332 376.549 337.147 377.021 337.147 377.609H335.702C335.702 376.708 336.03 375.961 336.686 375.367C337.347 374.768 338.186 374.469 339.202 374.469C340.274 374.469 341.116 374.753 341.725 375.32C342.334 375.888 342.639 376.677 342.639 377.688C342.639 378.182 342.478 378.661 342.155 379.125C341.837 379.589 341.402 379.935 340.85 380.164C341.475 380.362 341.957 380.69 342.295 381.148C342.639 381.607 342.811 382.167 342.811 382.828C342.811 383.849 342.478 384.659 341.811 385.258C341.144 385.857 340.277 386.156 339.209 386.156C338.142 386.156 337.272 385.867 336.6 385.289C335.933 384.711 335.6 383.948 335.6 383H337.053C337.053 383.599 337.248 384.078 337.639 384.438C338.03 384.797 338.553 384.977 339.209 384.977C339.907 384.977 340.441 384.794 340.811 384.43C341.181 384.065 341.366 383.542 341.366 382.859C341.366 382.198 341.163 381.69 340.756 381.336C340.35 380.982 339.764 380.799 338.998 380.789H337.913V379.609ZM352.078 381.148C352.078 382.841 351.789 384.099 351.211 384.922C350.633 385.745 349.729 386.156 348.5 386.156C347.286 386.156 346.388 385.755 345.805 384.953C345.221 384.146 344.919 382.943 344.898 381.344V379.414C344.898 377.742 345.188 376.5 345.766 375.688C346.344 374.875 347.25 374.469 348.484 374.469C349.708 374.469 350.609 374.862 351.188 375.648C351.766 376.43 352.062 377.638 352.078 379.273V381.148ZM350.633 379.172C350.633 377.948 350.461 377.057 350.117 376.5C349.773 375.938 349.229 375.656 348.484 375.656C347.745 375.656 347.206 375.935 346.867 376.492C346.529 377.049 346.354 377.906 346.344 379.062V381.375C346.344 382.604 346.521 383.513 346.875 384.102C347.234 384.685 347.776 384.977 348.5 384.977C349.214 384.977 349.742 384.701 350.086 384.148C350.435 383.596 350.617 382.727 350.633 381.539V379.172Z" fill="#AFBDD1"/>
<path d="M431.913 379.609H432.998C433.681 379.599 434.217 379.419 434.608 379.07C434.998 378.721 435.194 378.25 435.194 377.656C435.194 376.323 434.53 375.656 433.202 375.656C432.577 375.656 432.077 375.836 431.702 376.195C431.332 376.549 431.147 377.021 431.147 377.609H429.702C429.702 376.708 430.03 375.961 430.686 375.367C431.347 374.768 432.186 374.469 433.202 374.469C434.274 374.469 435.116 374.753 435.725 375.32C436.334 375.888 436.639 376.677 436.639 377.688C436.639 378.182 436.478 378.661 436.155 379.125C435.837 379.589 435.402 379.935 434.85 380.164C435.475 380.362 435.957 380.69 436.295 381.148C436.639 381.607 436.811 382.167 436.811 382.828C436.811 383.849 436.478 384.659 435.811 385.258C435.144 385.857 434.277 386.156 433.209 386.156C432.142 386.156 431.272 385.867 430.6 385.289C429.933 384.711 429.6 383.948 429.6 383H431.053C431.053 383.599 431.248 384.078 431.639 384.438C432.03 384.797 432.553 384.977 433.209 384.977C433.907 384.977 434.441 384.794 434.811 384.43C435.181 384.065 435.366 383.542 435.366 382.859C435.366 382.198 435.163 381.69 434.756 381.336C434.35 380.982 433.764 380.799 432.998 380.789H431.913V379.609ZM443.695 386H442.242V376.367L439.328 377.438V376.125L443.469 374.57H443.695V386Z" fill="#AFBDD1"/>
<rect x="601" y="357" width="48" height="48" fill="#212936"/>
</g>
<path d="M619.561 230H618.108V220.367L615.194 221.438V220.125L619.334 218.57H619.561V230ZM631.398 230H623.945V228.961L627.883 224.586C628.466 223.924 628.867 223.388 629.086 222.977C629.31 222.56 629.422 222.13 629.422 221.688C629.422 221.094 629.242 220.607 628.883 220.227C628.523 219.846 628.044 219.656 627.445 219.656C626.727 219.656 626.167 219.862 625.766 220.273C625.37 220.68 625.172 221.247 625.172 221.977H623.727C623.727 220.93 624.062 220.083 624.734 219.438C625.411 218.792 626.315 218.469 627.445 218.469C628.503 218.469 629.339 218.747 629.953 219.305C630.568 219.857 630.875 220.594 630.875 221.516C630.875 222.635 630.161 223.969 628.734 225.516L625.688 228.82H631.398V230Z" fill="#AFBDD1"/>
<circle cx="623" cy="225" r="24" fill="#1976D2"/>
<path d="M619.561 230H618.108V220.367L615.194 221.438V220.125L619.334 218.57H619.561V230ZM631.398 230H623.945V228.961L627.883 224.586C628.466 223.924 628.867 223.388 629.086 222.977C629.31 222.56 629.422 222.13 629.422 221.688C629.422 221.094 629.242 220.607 628.883 220.227C628.523 219.846 628.044 219.656 627.445 219.656C626.727 219.656 626.167 219.862 625.766 220.273C625.37 220.68 625.172 221.247 625.172 221.977H623.727C623.727 220.93 624.062 220.083 624.734 219.438C625.411 218.792 626.315 218.469 627.445 218.469C628.503 218.469 629.339 218.747 629.953 219.305C630.568 219.857 630.875 220.594 630.875 221.516C630.875 222.635 630.161 223.969 628.734 225.516L625.688 228.82H631.398V230Z" fill="#AFBDD1"/>
<defs>
<clipPath id="clip0_40_44">
<rect width="656" height="378" fill="white" transform="translate(16 72)"/>
</clipPath>
</defs>
</svg>
